<?xml version="1.0" standalone="no"?>
<!DOCTYPE svg PUBLIC "-//W3C//DTD SVG 20010904//EN"
 "http://www.w3.org/TR/2001/REC-SVG-20010904/DTD/svg10.dtd">
<svg version="1.0" xmlns="http://www.w3.org/2000/svg"
 width="1028.000000pt" height="539.000000pt" viewBox="0 0 1028.000000 539.000000"
 preserveAspectRatio="xMidYMid meet">

<g transform="translate(0.000000,539.000000) scale(0.100000,-0.100000)"
fill="#000000" stroke="none">
<path d="M2505 5368 c-19 -17 -29 -42 -41 -98 -21 -97 -15 -157 36 -352 22
-87 40 -175 40 -197 0 -21 -27 -157 -59 -302 -33 -145 -152 -678 -266 -1184
-113 -506 -209 -929 -212 -940 -4 -13 -45 95 -120 320 l-114 340 12 73 c29
178 -16 344 -136 503 l-35 46 65 51 c52 42 71 66 102 129 36 74 38 81 38 177
0 86 -3 107 -23 144 -31 57 -88 119 -190 204 -101 85 -117 112 -108 186 l6 54
-27 -6 c-34 -8 -83 -59 -83 -86 0 -17 -7 -20 -40 -20 -103 0 -237 93 -275 193
-22 59 -17 155 13 213 39 77 134 144 205 144 14 0 16 -6 11 -38 -5 -31 -1 -43
25 -76 31 -39 37 -61 23 -84 -6 -9 -14 -5 -31 14 -29 33 -76 30 -104 -8 -18
-24 -18 -30 -7 -57 14 -36 42 -46 102 -38 82 11 152 98 152 188 0 43 -6 57
-49 115 -7 9 -2 21 17 41 52 56 62 104 29 144 l-19 24 -8 -30 c-20 -83 -48
-105 -164 -129 -87 -18 -142 -49 -199 -111 -68 -74 -86 -123 -86 -235 0 -76 4
-104 21 -141 30 -63 88 -125 152 -162 l54 -30 -47 -18 c-159 -60 -227 -231
-142 -356 61 -89 218 -100 255 -18 24 53 -10 105 -69 105 -46 0 -79 -30 -79
-72 0 -33 -9 -35 -43 -8 -58 46 -56 139 5 197 58 53 145 67 241 38 62 -19 100
-10 144 31 l36 34 44 -22 c65 -32 154 -118 188 -179 41 -75 47 -188 15 -273
-26 -68 -108 -160 -153 -172 -35 -8 -51 6 -101 90 -53 87 -45 180 18 222 30
19 30 19 43 -20 14 -44 56 -72 90 -60 35 12 58 52 49 87 -13 54 -117 75 -186
38 -19 -10 -50 -37 -67 -60 -29 -38 -33 -50 -33 -104 0 -63 25 -134 70 -197
11 -15 20 -31 20 -35 0 -4 -44 -6 -98 -3 -124 5 -172 27 -362 168 -191 142
-299 190 -427 190 l-53 0 39 50 c22 28 53 85 68 126 15 42 43 93 60 114 18 21
33 40 33 43 0 2 -14 7 -31 11 -22 4 -45 0 -75 -16 l-44 -22 -23 22 c-29 27
-88 52 -124 52 -69 0 -143 -72 -143 -140 0 -72 76 -105 125 -55 32 31 32 66 0
103 -29 35 -24 42 25 42 65 0 120 -62 120 -136 0 -74 -60 -133 -193 -188 -180
-75 -330 -224 -392 -388 -23 -63 -17 -191 14 -270 18 -46 87 -161 135 -223 6
-8 -9 -40 -46 -96 -72 -109 -98 -181 -104 -289 l-5 -85 24 70 c35 104 95 212
152 273 l51 55 82 -73 c45 -40 82 -76 81 -79 -1 -3 -54 -54 -119 -113 -177
-161 -222 -243 -224 -403 -1 -80 4 -102 38 -200 47 -134 58 -249 32 -358 -20
-87 -20 -91 5 -73 38 26 88 107 100 162 7 30 14 54 16 54 2 0 34 -18 70 -40
36 -21 95 -49 132 -61 36 -12 69 -24 74 -26 4 -2 -19 -27 -50 -55 -231 -205
-346 -390 -346 -558 -1 -89 31 -188 86 -272 55 -82 69 -124 69 -204 0 -81 -20
-136 -77 -214 -46 -62 -95 -170 -102 -220 -6 -43 17 -119 43 -140 12 -11 14
-3 14 51 1 90 20 124 154 274 162 182 188 241 151 345 -8 23 -15 44 -15 45 0
1 24 5 53 8 69 7 136 37 187 83 60 55 84 106 84 184 0 69 -12 100 -67 178 -36
50 -41 100 -13 131 17 19 17 21 2 27 -25 9 -86 -17 -108 -47 -11 -14 -22 -44
-25 -67 -4 -32 -10 -42 -24 -42 -23 0 -76 -45 -84 -71 -17 -53 44 -110 96 -90
43 16 52 35 44 92 l-7 52 28 -7 c48 -11 84 -59 84 -112 0 -91 -58 -142 -148
-130 -146 20 -139 20 -172 -12 -22 -23 -30 -40 -30 -67 0 -35 -1 -37 -27 -30
-59 14 -101 60 -117 129 -12 51 -8 159 9 205 32 93 177 262 373 437 76 68 100
84 125 84 49 0 96 -34 118 -86 23 -50 19 -85 -13 -140 l-20 -34 44 0 c57 0
109 35 137 93 27 56 27 93 -3 150 -14 30 -19 47 -11 47 35 0 120 35 151 62 62
55 80 105 94 260 11 121 20 152 57 190 l26 27 21 -31 c27 -40 66 -54 103 -36
56 27 67 94 23 138 -27 27 -91 26 -148 -1 -63 -31 -96 -82 -122 -191 -49 -202
-120 -282 -305 -343 -43 -14 -80 -23 -83 -20 -3 2 24 35 60 73 113 120 161
231 160 371 -1 75 -26 181 -59 244 l-14 28 48 -8 c80 -14 252 -8 323 10 84 22
233 96 287 141 22 20 45 36 50 36 5 0 71 -188 147 -419 l137 -419 -22 -80
c-25 -92 -21 -136 16 -181 31 -36 31 -39 0 -157 -31 -119 -32 -185 -5 -229 58
-93 216 -82 264 19 24 52 20 94 -25 221 l-41 116 26 38 c33 47 33 81 1 186
l-25 83 179 683 c419 1594 400 1524 411 1512 5 -4 21 -55 35 -113 15 -58 105
-402 201 -765 195 -734 431 -1629 650 -2458 157 -595 175 -647 259 -734 58
-60 104 -74 170 -53 46 15 93 16 182 5 82 -10 141 7 198 57 47 42 95 129 95
175 0 67 -56 94 -151 74 -78 -17 -116 -39 -191 -109 -74 -70 -83 -71 -113 -12
-8 15 -147 542 -309 1171 -162 629 -421 1634 -576 2234 -308 1194 -287 1091
-256 1285 27 163 17 380 -20 452 -35 68 -101 59 -137 -20 -19 -40 -22 -64 -22
-172 0 -102 5 -149 29 -255 l30 -130 -38 -145 c-21 -80 -40 -147 -42 -150 -10
-9 -23 26 -48 127 l-26 103 16 97 c20 118 23 391 5 475 -14 63 -55 118 -89
118 -12 0 -32 -10 -47 -22z m75 -195 c9 -93 0 -215 -17 -220 -18 -6 -34 61
-40 175 -4 76 -2 109 7 128 22 40 41 9 50 -83z m261 -20 c1 -48 -2 -114 -6
-146 -15 -120 -53 -25 -54 137 -1 79 2 103 16 118 16 17 17 17 30 -1 8 -13 14
-52 14 -108z m249 -1613 c653 -2566 822 -3229 840 -3291 11 -36 34 -85 51
-108 24 -34 28 -45 17 -52 -24 -16 -66 -9 -95 15 -48 41 -79 113 -133 316 -53
201 -265 987 -719 2673 -144 532 -274 1020 -291 1083 l-30 115 35 137 c20 75
38 146 42 157 l6 20 8 -20 c5 -11 126 -481 269 -1045z m-466 900 c14 -52 26
-106 26 -120 0 -27 -575 -2218 -584 -2228 -8 -8 -26 46 -26 78 0 15 30 153 66
306 36 154 157 675 270 1159 112 484 207 886 209 894 8 21 11 14 39 -89z
m-2132 -595 c-4 -52 -3 -56 32 -91 33 -33 39 -36 83 -31 27 3 73 12 103 22
136 41 300 -32 347 -153 23 -60 23 -172 0 -225 l-17 -39 -30 31 c-57 56 -133
51 -188 -14 -15 -18 -56 -85 -91 -149 -70 -128 -141 -213 -225 -271 -54 -37
-55 -37 -78 -19 -51 40 -148 129 -148 135 0 3 39 28 87 55 145 81 189 134 200
238 5 50 7 52 49 70 48 20 100 73 110 112 4 14 5 27 2 29 -2 2 -26 -3 -53 -11
-80 -25 -135 -14 -213 39 -37 25 -80 51 -97 58 -38 14 -141 14 -177 0 -32 -12
-34 -6 -14 44 27 63 95 126 181 165 105 48 129 59 136 59 3 1 4 -24 1 -54z
m685 -234 c100 -49 167 -64 276 -63 l98 1 20 -32 c45 -74 62 -139 62 -238 1
-95 0 -99 -42 -184 -36 -71 -42 -93 -38 -123 7 -41 55 -92 87 -92 10 0 22 -5
25 -11 11 -18 -83 -99 -154 -133 -62 -29 -73 -31 -176 -31 -137 1 -231 25
-363 96 -112 59 -146 63 -197 18 -31 -28 -35 -36 -35 -81 l0 -49 -67 35 c-65
34 -162 104 -163 117 0 4 71 43 158 88 110 57 177 99 225 141 38 33 72 60 76
60 4 0 16 -18 26 -40 24 -52 84 -107 127 -115 66 -12 178 61 178 115 0 16 -7
20 -38 20 -52 0 -103 30 -130 76 -21 36 -23 47 -18 139 3 55 9 128 12 162 4
44 2 75 -9 107 -9 25 -12 46 -8 46 4 0 35 -13 68 -29z m-891 -52 c57 -27 94
-98 94 -179 0 -75 -32 -138 -109 -214 l-59 -59 -26 29 c-37 41 -84 141 -92
194 l-7 45 24 -21 c13 -12 34 -25 46 -28 26 -8 78 16 87 39 31 82 -49 155
-116 105 -38 -28 -45 -20 -21 27 13 25 34 46 63 61 54 27 63 27 116 1z m1684
-1421 c0 -16 -4 -28 -9 -28 -7 0 -251 705 -251 728 0 4 6 14 12 20 10 10 37
-58 130 -340 65 -194 118 -365 118 -380z m-1406 591 c255 -213 344 -439 241
-615 -31 -52 -180 -235 -203 -248 -24 -14 -127 10 -214 51 -73 34 -96 53 -64
53 7 0 25 9 40 21 21 17 26 29 26 65 l0 44 68 0 c89 0 144 28 189 94 55 80 56
159 4 215 -23 24 -38 31 -67 31 -50 0 -74 -23 -74 -71 0 -49 33 -74 85 -66
l35 6 -15 -28 c-17 -33 -49 -56 -91 -65 -50 -11 -106 18 -163 84 -61 69 -92
83 -146 64 -50 -17 -58 -7 -51 63 9 97 102 235 224 333 35 27 67 50 71 50 4 0
51 -36 105 -81z m1466 -765 c0 -18 -4 -35 -9 -38 -11 -7 -21 28 -21 74 1 33 2
34 15 16 8 -11 15 -34 15 -52z m69 -221 c1 -18 -3 -33 -9 -33 -12 0 -24 65
-15 87 7 17 8 16 15 -2 5 -11 9 -35 9 -52z m-129 31 c11 -27 4 -74 -11 -74
-13 0 -22 46 -15 75 8 32 14 32 26 -1z m95 -285 c21 -61 38 -122 38 -135 0
-71 -105 -94 -134 -30 -9 20 -7 43 10 113 34 136 41 163 46 163 2 0 20 -50 40
-111z m2345 -1249 c0 -45 -61 -120 -113 -139 -35 -13 -117 -14 -137 -1 -12 7
-11 12 5 32 44 50 105 90 165 109 37 11 80 10 80 -1z"/>
<path d="M4282 3533 c-35 -7 -89 -66 -96 -106 -9 -46 17 -111 56 -138 117 -84
273 56 198 178 -33 54 -93 80 -158 66z"/>
<path d="M7681 3523 c-124 -65 -93 -242 45 -259 73 -9 141 46 150 122 13 104
-103 186 -195 137z"/>
<path d="M8820 3508 c-226 -79 -337 -250 -356 -547 l-7 -111 -118 0 -119 0 0
-50 0 -50 120 0 121 0 -3 -499 c-3 -487 -4 -500 -24 -527 -38 -51 -70 -68
-139 -72 -61 -4 -65 -6 -65 -28 l0 -24 370 0 370 0 0 25 c0 25 -1 25 -80 25
-117 0 -169 33 -189 120 -6 28 -11 226 -11 513 l0 467 160 0 160 0 0 50 0 50
-161 0 -161 0 5 213 c5 234 13 275 61 323 75 75 178 69 256 -15 25 -27 70 -76
100 -110 33 -36 67 -63 84 -67 42 -10 96 21 120 69 16 34 17 44 6 80 -16 55
-76 112 -159 151 -58 27 -78 31 -171 34 -89 2 -115 -1 -170 -20z"/>
<path d="M4182 2806 c-96 -39 -174 -75 -173 -79 1 -4 1 -14 1 -22 0 -13 10
-14 63 -9 133 14 132 19 132 -521 0 -427 0 -430 -22 -466 -27 -43 -59 -59
-118 -59 -41 0 -45 -2 -45 -25 l0 -25 306 0 305 0 -3 23 c-3 19 -11 23 -61 28
-35 4 -66 14 -79 25 -48 43 -48 47 -48 644 l0 560 -42 -1 c-28 -1 -103 -26
-216 -73z"/>
<path d="M4915 2814 c-88 -36 -170 -70 -182 -75 -20 -7 -21 -12 -12 -33 10
-21 15 -23 36 -15 32 12 89 12 112 -1 43 -23 46 -52 46 -510 0 -397 -2 -438
-18 -467 -22 -42 -64 -63 -122 -63 -41 0 -45 -2 -45 -25 l0 -25 310 0 310 0 0
24 c0 22 -4 24 -65 28 -58 3 -69 8 -98 36 l-32 32 -3 414 -3 414 58 51 c170
152 365 156 429 9 17 -39 19 -79 22 -447 2 -285 0 -412 -8 -432 -21 -50 -54
-71 -122 -78 -56 -5 -63 -9 -66 -28 l-3 -23 310 0 311 0 0 25 c0 23 -4 25 -47
25 -53 0 -104 25 -125 62 -10 18 -14 124 -19 448 -6 445 -9 473 -56 563 -23
46 -84 107 -127 129 -57 30 -176 36 -244 14 -74 -25 -164 -87 -243 -167 l-69
-71 0 126 0 126 -37 0 c-23 -1 -102 -27 -198 -66z"/>
<path d="M7610 2810 c-195 -81 -193 -80 -185 -102 6 -15 15 -17 60 -12 76 9
99 1 121 -43 17 -35 19 -73 22 -428 4 -451 0 -493 -53 -542 -30 -28 -42 -33
-85 -33 -47 0 -50 -2 -50 -25 l0 -25 300 0 300 0 0 24 c0 21 -5 24 -55 28 -59
5 -86 22 -114 73 -14 27 -16 93 -19 593 l-3 562 -37 -1 c-21 0 -107 -29 -202
-69z"/>
<path d="M9478 2864 c-110 -26 -203 -93 -256 -183 -31 -53 -37 -140 -12 -185
32 -61 119 -75 172 -27 32 28 33 31 38 129 6 117 19 143 91 180 37 20 55 23
116 19 143 -8 201 -83 210 -270 l5 -102 -53 -19 c-125 -43 -336 -137 -410
-182 -165 -99 -233 -196 -232 -329 0 -86 14 -136 53 -198 58 -92 177 -140 298
-119 78 13 120 34 239 123 51 38 95 69 97 69 2 0 7 -22 11 -50 13 -95 81 -157
160 -145 71 11 126 43 202 120 67 69 73 78 73 116 l0 42 -50 -47 c-80 -75
-127 -80 -152 -18 -7 17 -13 186 -17 452 -7 466 -7 460 -70 533 -37 41 -112
80 -189 96 -72 15 -254 12 -324 -5z m362 -763 l0 -238 -57 -40 c-102 -71 -141
-87 -215 -88 -59 0 -70 3 -105 31 -61 49 -87 106 -87 189 1 145 82 226 339
337 60 26 113 48 118 48 4 0 7 -107 7 -239z"/>
<path d="M6240 2743 c0 -60 -3 -138 -7 -175 l-6 -68 30 0 c29 0 30 2 36 52 8
65 49 150 85 175 24 16 54 18 310 21 155 2 282 1 282 -2 0 -4 -183 -250 -407
-549 -246 -327 -409 -553 -411 -569 l-4 -28 550 0 550 0 6 93 c3 50 7 136 9
190 4 95 4 97 -18 97 -20 0 -24 -7 -34 -75 -18 -125 -57 -179 -146 -204 -41
-11 -605 -16 -605 -5 0 3 187 252 415 554 297 392 415 556 415 574 l0 26 -525
0 -525 0 0 -107z"/>
<path d="M8709 1310 c-104 -18 -184 -82 -238 -192 -25 -50 -43 -119 -76 -281
-24 -118 -48 -232 -54 -253 -16 -56 -16 -55 36 -52 l47 3 17 80 c31 154 195
368 263 342 22 -9 21 -21 -14 -192 -16 -81 -30 -162 -30 -180 0 -86 103 -86
198 -1 64 58 60 83 -5 30 -56 -46 -89 -55 -100 -28 -3 8 8 86 26 172 39 196
39 224 5 251 -31 25 -52 26 -98 7 -51 -21 -105 -75 -158 -156 -27 -41 -51 -76
-53 -78 -7 -7 64 320 80 367 31 95 95 132 183 105 l47 -14 27 32 c14 18 26 33
25 34 -11 7 -92 10 -128 4z"/>
<path d="M7390 1206 c-36 -24 -71 -55 -78 -70 -6 -14 -10 -26 -7 -26 3 0 29
12 58 26 43 21 59 36 76 70 11 24 20 44 18 44 -1 0 -32 -20 -67 -44z"/>
<path d="M4407 1196 c-113 -41 -179 -166 -133 -254 8 -15 53 -61 99 -102 87
-75 127 -129 127 -171 0 -42 -35 -85 -85 -104 -39 -16 -53 -16 -98 -6 -29 6
-70 23 -91 37 l-38 26 -29 -28 c-16 -15 -29 -31 -29 -35 0 -11 51 -29 113 -39
189 -30 371 101 328 238 -13 44 -30 63 -139 160 -93 84 -111 121 -87 178 31
74 152 101 214 48 22 -18 31 -35 31 -55 0 -19 5 -29 14 -29 20 0 24 8 32 67
l6 52 -53 15 c-64 19 -131 20 -182 2z"/>
<path d="M8054 1197 c-49 -19 -99 -57 -125 -95 -18 -27 -23 -48 -24 -94 l0
-60 112 -107 c68 -65 114 -117 118 -134 10 -40 -2 -91 -29 -116 -52 -49 -133
-49 -223 -1 l-52 27 -31 -32 -32 -33 53 -17 c67 -23 170 -23 236 -1 60 20 130
77 149 123 34 81 5 145 -111 243 -84 71 -115 113 -115 154 0 39 26 83 60 101
35 18 109 20 145 3 27 -12 55 -54 55 -83 0 -8 6 -15 13 -15 9 0 17 21 24 56
l10 56 -36 16 c-46 20 -157 25 -197 9z"/>
<path d="M4775 1011 c-51 -23 -115 -83 -115 -107 0 -14 7 -11 38 18 68 66 112
74 112 21 0 -15 -14 -98 -31 -183 -16 -85 -27 -166 -24 -180 31 -123 188 -50
286 133 17 32 32 57 34 55 2 -2 -3 -32 -10 -68 -19 -87 -19 -145 1 -164 34
-34 114 -13 182 48 35 32 61 76 45 76 -3 0 -28 -21 -55 -46 -55 -51 -91 -57
-96 -14 -2 20 28 182 75 398 5 20 2 22 -40 22 -51 0 -49 4 -68 -100 -15 -81
-72 -179 -154 -266 -60 -64 -97 -80 -109 -49 -3 8 8 81 24 162 17 80 30 165
30 189 0 73 -44 92 -125 55z"/>
<path d="M5770 1019 c-19 -5 -83 -6 -142 -3 -98 6 -111 5 -150 -16 -52 -27
-88 -58 -88 -78 0 -12 3 -12 23 0 52 34 87 39 192 27 l101 -12 -184 -170
c-118 -110 -190 -183 -199 -205 -8 -19 -13 -36 -11 -37 2 -2 23 1 48 5 25 5
97 6 160 3 104 -5 119 -4 155 15 51 26 105 76 105 96 0 20 0 20 -51 -9 -55
-31 -101 -37 -213 -28 l-88 8 173 163 c136 128 178 173 191 208 10 24 17 44
15 43 -1 -1 -18 -5 -37 -10z"/>
<path d="M6585 1011 c-50 -22 -115 -82 -115 -106 0 -13 9 -9 39 18 73 66 111
72 111 18 0 -26 -59 -325 -76 -389 -6 -22 -5 -23 42 -20 l48 3 17 80 c31 154
195 368 263 342 22 -9 21 -21 -14 -192 -16 -81 -30 -162 -30 -180 0 -86 103
-86 198 -1 64 58 60 83 -5 30 -55 -45 -89 -55 -99 -29 -3 8 9 93 27 190 36
191 35 218 -13 244 -60 34 -162 -35 -244 -164 -26 -41 -48 -75 -50 -75 -1 0 5
28 12 63 35 165 0 219 -111 168z"/>
<path d="M7278 991 c-60 -19 -108 -40 -108 -46 0 -7 19 -11 48 -11 60 1 61 -4
28 -178 -39 -199 -33 -236 36 -236 60 0 178 81 178 122 0 17 -8 13 -50 -26
-35 -33 -57 -46 -73 -44 -20 3 -22 8 -21 58 1 30 18 131 38 224 21 92 36 169
34 171 -2 1 -51 -14 -110 -34z"/>
<path d="M9187 1016 c-125 -45 -222 -172 -234 -306 -7 -70 8 -118 48 -156 27
-26 37 -29 97 -29 55 0 75 5 115 28 113 66 180 174 185 297 3 65 1 79 -20 110
-43 63 -112 84 -191 56z m80 -50 c26 -23 28 -30 31 -113 3 -72 0 -99 -19 -148
-27 -73 -93 -145 -133 -145 -71 0 -100 50 -94 164 10 188 126 318 215 242z"/>
<path d="M9601 991 c-58 -20 -106 -41 -108 -47 -2 -6 15 -10 44 -10 45 1 48
-1 51 -26 2 -15 -18 -132 -43 -260 -53 -266 -75 -321 -139 -352 -34 -17 -44
-17 -93 -6 -54 12 -56 11 -81 -14 -14 -14 -22 -29 -18 -33 4 -4 38 -8 75 -7
146 1 258 93 310 255 l12 36 62 0 c82 -1 144 29 218 104 66 66 105 140 120
225 14 83 0 138 -43 160 -79 41 -175 -23 -274 -183 -19 -32 -33 -49 -31 -38
17 65 48 227 46 229 -2 2 -51 -13 -108 -33z m309 -50 c38 -71 -39 -306 -115
-352 -34 -21 -87 -24 -135 -8 -32 12 -32 12 -25 63 9 67 61 153 150 244 74 75
105 89 125 53z"/>
<path d="M6149 1006 c-131 -47 -246 -195 -257 -332 -6 -75 1 -107 30 -134 67
-62 199 19 287 176 29 54 32 56 26 24 -28 -169 -28 -168 -11 -195 30 -46 121
-24 199 48 57 53 49 79 -10 28 -50 -44 -88 -60 -105 -43 -12 12 39 291 78 425
5 15 -4 17 -98 17 -58 -1 -119 -7 -139 -14z m83 -36 c21 -6 39 -14 42 -18 8
-14 -13 -95 -36 -137 -31 -58 -99 -145 -148 -189 -85 -77 -128 -26 -96 115 31
137 106 239 175 239 14 0 43 -5 63 -10z"/>
</g>
</svg>
