<svg width="148" height="73" viewBox="0 0 148 73" fill="none" xmlns="http://www.w3.org/2000/svg">
<path fill-rule="evenodd" clip-rule="evenodd" d="M28.9657 48.8C28.9657 48.9 28.9657 49 28.9657 49.1C28.9657 49.2 29.0657 49.3 29.0657 49.4C29.1657 49.2 29.0657 49 28.9657 48.8ZM28.0657 46.5C28.0657 46.4 28.0657 46.3 28.0657 46.1C28.0657 46 27.9657 45.8 27.9657 45.7C27.9657 46 27.9657 46.3 28.0657 46.5ZM27.2657 49.6C27.3657 49.4 27.3657 49.3 27.3657 49.2C27.3657 49.1 27.3657 49 27.2657 48.9C27.1657 49.1 27.1657 49.3 27.2657 49.6ZM35.8657 4.7V4.2C35.8657 3.7 35.7657 3.2 35.7657 2.7L35.5657 2.5L35.3657 2.7C35.2657 3.3 35.2657 3.9 35.3657 4.6C35.4657 5.2 35.5657 5.8 35.7657 6.4V6.3C35.7657 5.9 35.8657 5.5 35.8657 5.1V4.7ZM39.3657 4.3V3.8C39.3657 3.4 39.3657 3 39.2657 2.7L39.0657 2.5L38.8657 2.7C38.7657 3.3 38.7657 3.9 38.7657 4.6C38.7657 5.2 38.8657 5.8 39.0657 6.4V6.3C39.1657 5.8 39.1657 5.3 39.2657 4.8L39.3657 4.3ZM61.0657 69.3C60.5657 69.3 59.8657 69.5 59.2657 69.8C58.6657 70.1 58.1657 70.6 57.8657 71C58.1657 71.1 58.5657 71.1 58.8657 71.1C59.2657 71.1 59.5657 71 59.9657 70.8C60.2657 70.6 60.5657 70.4 60.7657 70.1C60.8657 69.9 61.0657 69.6 61.0657 69.3ZM24.0657 34.6C23.9657 34.8 23.9657 34.8 23.9657 35C24.7657 37.2 25.5657 39.6 26.3657 42L27.0657 44.1C27.0657 43.9 27.0657 43.8 27.0657 43.7C26.5657 42.1 25.9657 40.6 25.4657 39.1L24.0657 34.6ZM28.1657 51.6L28.0657 52C27.8657 52.8 27.6657 53.5 27.4657 54.3C27.4657 54.5 27.4657 54.6 27.4657 54.8C27.5657 54.9 27.6657 55.1 27.7657 55.2C27.9657 55.3 28.0657 55.3 28.2657 55.3C28.4657 55.3 28.5657 55.2 28.7657 55.1C28.8657 55 28.9657 54.9 29.0657 54.7C29.0657 54.6 29.0657 54.4 29.0657 54.2C28.9657 53.9 28.8657 53.6 28.7657 53.3L28.1657 51.6ZM1.56569 28C1.66569 28.5 1.76569 29 1.96569 29.4C2.26569 29.9 2.56569 30.4 3.06569 30.8L3.46569 30.4C3.86569 30 4.26569 29.7 4.56569 29.3C4.96569 28.8 5.26568 28.2 5.26568 27.5C5.26568 26.9 5.06568 26.2 4.66568 25.7C4.36568 25.3 3.96569 25.1 3.56569 25C3.16569 24.9 2.66568 25 2.26568 25.3C2.06568 25.5 1.86568 25.7 1.76568 25.9L1.66568 26.1C1.86568 26 2.06568 25.9 2.26568 25.8C2.66568 25.7 2.96568 25.8 3.36568 26L3.46569 26.1C3.66569 26.3 3.76568 26.6 3.86568 26.9C3.86568 27.2 3.76568 27.5 3.66568 27.7L3.56569 27.9C3.26569 28.2 2.96569 28.3 2.56569 28.3C2.16569 28.4 1.86569 28.3 1.56569 28ZM28.7657 44.3L36.7657 15.2V14.8C36.5657 14 36.3657 13.2 36.0657 12.4L32.4657 27.1C31.1657 32.4 29.8657 37.7 28.5657 42.9C28.4657 43.2 28.4657 43.5 28.5657 43.8C28.6657 44 28.6657 44.2 28.7657 44.3ZM2.66568 41.1C3.06568 40.8 3.46568 40.7 3.86568 40.7C4.26568 40.7 4.56569 41 4.96569 41.3L5.46569 41.8C5.66569 42 5.76569 42.2 5.96569 42.3C6.16569 42.5 6.46568 42.7 6.76568 42.7C7.06568 42.8 7.36568 42.7 7.66568 42.7C7.96568 42.6 8.16568 42.5 8.36568 42.3C8.46568 42.2 8.56568 42.1 8.66568 41.9C8.46568 42 8.16569 42 7.96569 42C7.66569 42 7.46568 41.8 7.26568 41.6C7.06568 41.4 6.96569 41.2 6.96569 40.9C6.96569 40.7 7.06568 40.4 7.16568 40.2C7.26568 40 7.56568 39.8 7.76568 39.8C7.96568 39.7 8.26569 39.7 8.56569 39.8C8.96569 39.9 9.26569 40.2 9.56569 40.5C9.76569 40.8 9.96569 41.3 9.96569 41.7C9.96569 42.3 9.76568 42.9 9.36568 43.4C8.96568 43.9 8.46568 44.3 7.86568 44.5C7.46568 44.6 7.16568 44.7 6.76568 44.7C6.46568 44.7 6.16568 44.7 5.86568 44.6C5.86568 45.1 5.86568 45.5 5.66568 45.8C5.46568 46.1 5.26568 46.2 4.86568 46.3C5.36568 46.6 5.86569 46.8 6.46569 47C7.06569 47.2 7.76568 47.4 8.36568 47.4L8.76568 47.3L9.26568 46.8C9.86568 46.1 10.4657 45.4 11.0657 44.7C11.5657 44 11.8657 43.3 11.9657 42.5C12.0657 41.7 11.8657 40.9 11.4657 40.1C10.4657 38 8.66568 36.6 6.86568 35.2L6.76568 35.1C5.96568 35.6 5.16569 36.2 4.56569 36.9C3.96569 37.6 3.36569 38.4 2.96569 39.3C2.86569 39.6 2.76568 39.9 2.76568 40.2C2.56568 40.5 2.56568 40.8 2.66568 41.1ZM8.16568 27.6C8.16568 28.4 7.96568 29.1 7.66568 29.7C7.26568 30.3 6.66568 30.8 5.86568 31.1C5.46568 31.3 5.06569 31.5 4.56569 31.8L4.16568 32.1L6.26568 33.9C6.86568 33.5 7.46569 33.1 7.96569 32.7C8.46569 32.2 8.96568 31.7 9.36568 31.1C9.96568 30.2 10.5657 29.2 11.0657 28.2V28.1C11.1657 27.9 11.2657 27.7 11.4657 27.6C11.7657 27.3 12.1657 27.1 12.5657 27C12.9657 26.9 13.3657 27 13.7657 27.2C13.9657 27.3 14.0657 27.4 14.2657 27.6L14.4657 27.8C14.6657 27.5 14.7657 27.1 14.7657 26.7C14.8657 26.2 14.8657 25.7 14.7657 25.2C14.6657 25 14.6657 24.7 14.5657 24.5C14.4657 24.3 14.3657 24.1 14.2657 23.9C13.6657 23.3 12.9657 22.9 12.2657 22.6C11.5657 22.4 10.7657 22.4 9.96569 22.6C9.86569 22.6 9.66569 22.7 9.56569 22.7C9.46569 22.8 9.26568 22.8 9.16568 22.9C8.86568 23 8.66568 23 8.36568 22.9C8.06568 22.8 7.66569 22.7 7.46569 22.5C7.16569 22.3 7.06569 22 6.96569 21.7C6.86569 21.5 6.86569 21.2 6.96569 21C6.96569 20.9 7.06569 20.8 7.06569 20.7L5.36568 21.3C4.96568 21.4 4.66568 21.6 4.36568 21.8C4.06568 22 3.76569 22.2 3.56569 22.5C3.36569 22.7 3.16569 23 3.06569 23.2C2.96569 23.4 2.86568 23.6 2.76568 23.8C3.46568 23.6 4.16568 23.5 4.86568 23.6C5.66568 23.7 6.36569 24.1 6.96569 24.6C7.26569 24.8 7.56569 25 7.96569 25.1C8.36569 25.2 8.76568 25.2 9.16568 25.1C9.46568 25 9.76569 24.9 10.0657 24.8L10.6657 24.6V24.8C10.6657 25.4 10.4657 25.9 10.0657 26.3C9.46569 27 8.96568 27.3 8.16568 27.6ZM13.5657 31L13.2657 31.2C12.8657 31.5 12.5657 31.8 12.1657 32.1C11.1657 32.9 10.0657 33.4 8.86568 33.9L8.66568 34C8.36568 34.1 8.06568 34.3 7.66568 34.5L7.36568 34.6C7.76568 35 8.26568 35.3 8.66568 35.6C9.06568 35.9 9.56569 36.1 10.0657 36.3C9.96569 35.9 10.0657 35.6 10.1657 35.3C10.2657 35 10.5657 34.7 10.8657 34.5C11.1657 34.3 11.5657 34.2 11.8657 34.2C12.1657 34.2 12.5657 34.3 12.8657 34.6C13.5657 35 14.2657 35.4 15.0657 35.6C15.8657 35.9 16.5657 36 17.4657 36.2C18.4657 36.3 19.3657 36.3 20.2657 36.1C21.1657 35.9 21.8657 35.4 22.6657 34.7C22.7657 34.6 22.9657 34.4 23.0657 34.3C22.9657 34.3 22.7657 34.3 22.6657 34.2C22.5657 34.2 22.3657 34.1 22.2657 34C21.9657 33.8 21.6657 33.5 21.5657 33.1C21.4657 32.8 21.4657 32.4 21.5657 32C21.5657 31.9 21.6657 31.7 21.7657 31.6L21.9657 31.3C22.1657 31 22.3657 30.7 22.4657 30.4C22.6657 29.5 22.7657 28.6 22.6657 27.7C22.5657 26.9 22.2657 26.1 21.7657 25.4L21.4657 25.3C21.2657 25.3 21.0657 25.3 20.9657 25.4C20.7657 25.4 20.6657 25.4 20.4657 25.4C19.6657 25.4 18.9657 25.3 18.2657 25.1C17.5657 24.9 16.8657 24.6 16.2657 24.3L15.8657 24.1C16.0657 24.5 16.1657 24.9 16.1657 25.3C16.1657 25.8 16.1657 26.2 16.0657 26.7C15.9657 27.1 15.8657 27.5 15.8657 27.9C15.8657 28.3 15.8657 28.7 15.8657 29.2C15.9657 29.6 16.0657 30 16.3657 30.3C16.6657 30.6 17.0657 30.8 17.4657 30.8C17.6657 30.8 17.8657 30.8 18.0657 30.8H18.5657V31C18.4657 31.5 18.2657 32 17.7657 32.4C17.3657 32.8 16.8657 33 16.2657 33C15.6657 33 15.0657 32.8 14.6657 32.4C14.0657 32.1 13.7657 31.6 13.5657 31ZM39.1657 11.7L39.0657 12.1C38.7657 13.1 38.5657 14 38.2657 15C38.2657 15.1 38.2657 15.2 38.2657 15.4C38.2657 15.5 38.2657 15.7 38.3657 15.8C39.7657 20.9 41.2657 26.2 42.7657 31.5L48.5657 52.3L53.2657 69C53.3657 69.4 53.4657 69.7 53.6657 70C53.8657 70.3 54.0657 70.6 54.3657 70.9C54.5657 71.1 54.7657 71.2 55.0657 71.2C55.2657 71.2 55.4657 71.2 55.5657 71.1C55.3657 70.8 55.1657 70.5 54.9657 70.2C54.7657 69.8 54.5657 69.4 54.4657 69C53.8657 66.7 53.2657 64.4 52.6657 62.2L47.9657 44.7C44.9657 33.7 42.1657 22.7 39.1657 11.7ZM22.7657 35.9C22.1657 36.4 21.4657 36.9 20.7657 37.3C19.9657 37.7 19.1657 38 18.2657 38.3C17.3657 38.5 16.4657 38.6 15.5657 38.6C14.7657 38.6 13.9657 38.5 13.2657 38.4C14.1657 40.2 14.3657 41.9 13.9657 43.4C13.5657 44.9 12.6657 46.3 11.2657 47.5H11.4657C11.8657 47.4 12.3657 47.3 12.7657 47.1C13.6657 46.8 14.4657 46.3 14.9657 45.6C15.4657 45 15.8657 44.2 16.0657 43.3C16.0657 43.1 16.1657 42.8 16.2657 42.6C16.3657 42.4 16.3657 42.1 16.4657 41.9C16.6657 41.3 17.0657 40.8 17.5657 40.4C18.0657 40 18.6657 39.8 19.3657 39.8C19.6657 39.8 19.9657 39.9 20.2657 40.1C20.4657 40.3 20.6657 40.6 20.7657 40.9C20.7657 41.2 20.7657 41.6 20.5657 41.8C20.3657 42.1 20.0657 42.3 19.7657 42.3C19.4657 42.4 19.1657 42.3 18.8657 42.2C18.5657 42.1 18.3657 41.8 18.2657 41.5L18.1657 41.4C17.9657 41.6 17.8657 41.7 17.6657 41.9C17.4657 42.1 17.3657 42.4 17.3657 42.7C17.2657 43.1 17.2657 43.5 17.2657 43.8C17.2657 44.1 17.2657 44.4 17.1657 44.6C17.1657 44.8 17.0657 45 17.0657 45.3C17.0657 45.5 16.9657 45.8 16.8657 46C16.6657 46.7 16.2657 47.3 15.6657 47.7C15.1657 48.1 14.4657 48.3 13.6657 48.4C13.9657 48.9 14.1657 49.4 14.1657 49.9C14.1657 50.5 13.9657 51 13.5657 51.5C13.2657 51.9 12.9657 52.1 12.5657 52.2C12.1657 52.3 11.6657 52.4 11.2657 52.3H11.0657L11.1657 52.1C11.2657 52 11.2657 51.9 11.3657 51.7C11.4657 51.5 11.6657 51.2 11.7657 51C11.8657 50.8 11.8657 50.7 11.8657 50.5C11.8657 50.1 11.7657 49.8 11.4657 49.5C11.2657 49.2 10.9657 49 10.5657 48.9C10.3657 48.8 10.1657 48.8 10.0657 48.8L9.76568 48.9C8.76568 49.8 7.66568 50.6 6.76568 51.6C5.76568 52.5 4.86569 53.5 4.06569 54.6C3.66569 55.2 3.36568 55.8 3.26568 56.5C3.16568 57.2 3.26569 57.9 3.46569 58.6C3.56569 59 3.76569 59.3 4.06569 59.5C4.36569 59.7 4.66569 59.8 4.96569 59.9C4.96569 59.7 4.96569 59.5 5.06569 59.3C5.06569 59.2 5.16568 59.1 5.16568 59C5.36568 58.6 5.56569 58.4 5.96569 58.2C6.26569 58 6.66569 58 7.06569 58.1C7.16569 58.1 7.26568 58.2 7.36568 58.2C7.66568 58.4 8.06568 58.4 8.36568 58.4C8.66568 58.4 9.06568 58.3 9.36568 58.1C9.46568 58 9.56568 57.9 9.66568 57.8C9.86568 57.6 9.86569 57.3 9.96569 57C9.96569 56.7 9.96568 56.4 9.76568 56.1C9.66568 55.9 9.56568 55.8 9.36568 55.7C9.26568 55.6 9.06568 55.5 8.86568 55.5C8.76568 55.5 8.66569 55.5 8.56569 55.5V55.6C8.66569 55.8 8.76568 56 8.76568 56.3C8.76568 56.6 8.66569 56.8 8.46569 57C8.26569 57.2 8.06568 57.3 7.76568 57.4C7.56568 57.5 7.26569 57.4 7.06569 57.3C6.86569 57.2 6.66569 57.1 6.46569 56.9C6.26569 56.7 6.26568 56.4 6.26568 56.2C6.26568 56 6.36569 55.7 6.56569 55.5C6.76569 55.3 6.96568 55.1 7.26568 55C7.46568 54.9 7.66568 54.9 7.86568 54.8C7.86568 54.5 7.86569 54.1 7.96569 53.8C8.06569 53.5 8.36568 53.2 8.76568 52.9C8.96568 52.8 9.16569 52.7 9.46569 52.7C9.66569 52.7 9.96568 52.7 10.2657 52.8L10.5657 52.9L10.3657 53.1C10.1657 53.3 10.0657 53.5 9.96569 53.6C9.86569 53.8 9.86568 54 9.86568 54.2C9.86568 54.3 9.96569 54.5 9.96569 54.6C9.96569 54.7 10.0657 54.8 10.1657 54.9C10.3657 55.1 10.5657 55.4 10.7657 55.6C11.1657 56.3 11.3657 57 11.2657 57.8C11.1657 58.5 10.8657 59.2 10.2657 59.8C10.0657 60 9.76569 60.2 9.56569 60.4C9.06569 60.7 8.66568 60.9 8.16568 61C7.76568 61.1 7.26568 61.2 6.86568 61.2V61.3C6.96568 61.5 7.06569 61.7 7.06569 62C7.16569 62.6 7.16569 63.1 6.96569 63.6C6.76569 64.1 6.46569 64.5 6.06569 65L4.66568 66.5C4.16568 67 3.76568 67.5 3.26568 68C2.96568 68.3 2.76568 68.7 2.66568 69.1C2.56568 69.5 2.56569 69.9 2.56569 70.4V70.8L2.36568 71L2.26568 70.9C1.96568 70.5 1.66569 70.1 1.56569 69.7C1.46569 69.3 1.46569 68.9 1.56569 68.4C1.76569 67.8 1.96568 67.3 2.26568 66.8C2.56568 66.3 2.86568 65.8 3.26568 65.4C3.76568 64.8 4.06569 63.9 4.06569 63.1C4.06569 62.3 3.86568 61.4 3.36568 60.8C3.06568 60.3 2.76569 59.9 2.46569 59.4C2.26569 58.9 2.06569 58.4 1.96569 57.8C1.86569 57.2 1.86568 56.7 1.86568 56.2C1.96568 55.7 2.06568 55.1 2.26568 54.6C2.56568 53.8 2.96569 53.1 3.46569 52.4C3.96569 51.7 4.56568 51.1 5.16568 50.5C5.56568 50.1 6.06569 49.7 6.46569 49.3L7.26568 48.6L6.86568 48.5C6.36568 48.4 5.86568 48.2 5.36568 48C4.86568 47.8 4.46569 47.5 4.06569 47.3L3.66568 47.1C3.56568 47.7 3.36568 48.2 3.16568 48.7C2.86568 49.3 2.36568 49.8 1.76568 50.2L1.36568 50.4L1.56569 49.4C1.66569 49 1.76568 48.7 1.76568 48.4C1.86568 47.6 1.96568 46.9 1.86568 46.1C1.76568 45.4 1.56568 44.6 1.26568 43.9C0.765683 42.7 0.565681 41.4 0.865681 40.2C1.06568 39 1.66568 37.9 2.66568 37C3.36568 36.4 4.06568 35.8 4.66568 35.2L5.56569 34.5L3.56569 32.8C3.06569 33.1 2.36568 33.9 1.86568 34.8C1.26568 35.8 0.865684 36.9 0.665684 37.9L0.565686 38.6L0.365681 37.9C0.265681 37.6 0.265683 37.1 0.265683 36.5C0.265683 35.9 0.465686 35.3 0.565686 34.8C0.765686 34.2 1.06568 33.7 1.36568 33.2C1.66568 32.7 2.06568 32.2 2.36568 31.8C2.46568 31.7 2.46569 31.7 2.46569 31.6C2.46569 31.6 2.46568 31.5 2.36568 31.4C1.86568 30.8 1.36569 30.2 1.06569 29.6C0.665686 29 0.365684 28.3 0.165684 27.6C-0.0343155 27 -0.034314 26.4 0.065686 25.8C0.165686 25.2 0.365684 24.6 0.665684 24.1C1.26568 23 2.06569 22.1 2.96569 21.3C3.86569 20.5 4.96568 19.9 6.16568 19.5C6.56568 19.3 6.96568 19.2 7.36568 18.9C7.66568 18.7 7.96568 18.4 8.26568 18C8.46568 17.7 8.56569 17.4 8.46569 17.1C8.46569 16.8 8.26569 16.5 8.06569 16.1C7.86569 15.8 7.56568 15.7 7.36568 15.6C7.06568 15.5 6.86569 15.5 6.56569 15.6H6.66568C6.96568 15.8 7.06568 16 7.16568 16.3C7.26568 16.6 7.16569 16.9 7.06569 17.1C6.96569 17.4 6.66568 17.6 6.36568 17.7C6.06568 17.8 5.76569 17.8 5.46569 17.7C5.16569 17.6 4.96568 17.4 4.76568 17.1C4.66568 16.8 4.56568 16.5 4.66568 16.2C4.76568 15.9 4.86569 15.7 4.96569 15.5C5.26569 15.1 5.56569 14.8 6.06569 14.6C6.46569 14.4 6.96569 14.4 7.46569 14.5C7.76569 14.6 7.96568 14.7 8.26568 14.8C8.46568 14.9 8.66568 15.1 8.86568 15.2L9.06569 15.3C9.26569 15.2 9.36569 15 9.56569 14.9C9.76569 14.8 10.0657 14.7 10.3657 14.7C10.5657 14.7 10.6657 14.7 10.7657 14.8C10.8657 14.8 11.0657 14.9 11.1657 15L11.4657 15.1L11.1657 15.3C10.7657 15.5 10.4657 15.8 10.2657 16.1C10.0657 16.4 9.86568 16.8 9.76568 17.2C9.66568 17.7 9.36568 18.1 9.16568 18.5C8.96568 18.8 8.76569 19 8.46569 19.3C9.16569 19.3 9.76569 19.4 10.4657 19.5C11.2657 19.7 11.9657 20 12.6657 20.4C13.3657 20.8 13.9657 21.3 14.5657 21.7C14.8657 21.9 15.1657 22.1 15.4657 22.4L15.6657 22.5C16.5657 23.2 17.5657 23.8 18.6657 24.1C19.0657 24.2 19.4657 24.2 19.8657 24.2C20.1657 24.2 20.4657 24.2 20.8657 24.1L20.7657 24C20.4657 23.6 20.1657 23.2 19.9657 22.8C19.7657 22.4 19.6657 21.9 19.5657 21.4C19.4657 20.9 19.5657 20.5 19.7657 20.1C19.9657 19.7 20.2657 19.3 20.7657 19C21.1657 18.7 21.5657 18.5 21.9657 18.5C22.3657 18.4 22.8657 18.5 23.2657 18.7C23.5657 18.8 23.7657 19 23.8657 19.2C23.9657 19.4 24.0657 19.7 23.9657 20C23.8657 20.3 23.7657 20.5 23.5657 20.7C23.3657 20.9 23.0657 20.9 22.7657 20.9C22.4657 20.9 22.2657 20.8 22.0657 20.6C21.8657 20.4 21.7657 20.2 21.6657 19.9L21.5657 19.7L21.2657 19.8C20.9657 20 20.7657 20.4 20.6657 20.8C20.5657 21.2 20.6657 21.7 20.8657 22C21.1657 22.5 21.4657 23 21.8657 23.5L21.9657 23.7H22.2657C23.0657 23.3 23.6657 22.7 24.0657 22C24.4657 21.3 24.6657 20.4 24.5657 19.5C24.4657 18.6 24.1657 17.9 23.6657 17.3C23.1657 16.7 22.4657 16.2 21.7657 15.7C21.6657 15.6 21.4657 15.5 21.3657 15.5L21.0657 15.3L20.9657 15.4C20.6657 15.8 20.2657 16.1 19.8657 16.2C19.4657 16.3 18.9657 16.3 18.4657 16.1C18.0657 15.9 17.5657 15.9 17.1657 15.9C16.7657 15.9 16.3657 16 15.8657 16.2C15.7657 16.2 15.6657 16.3 15.6657 16.3C15.2657 16.5 14.9657 16.9 14.8657 17.3C14.6657 17.7 14.6657 18.1 14.8657 18.5L14.9657 18.7C15.0657 18.9 15.1657 19 15.3657 19.1C15.4657 19.2 15.5657 19.2 15.6657 19.3C15.6657 19 15.7657 18.7 15.8657 18.4C16.0657 18.2 16.3657 18 16.6657 17.9C16.9657 17.8 17.2657 17.9 17.5657 18C17.8657 18.1 18.0657 18.4 18.1657 18.7C18.2657 19 18.2657 19.3 18.1657 19.5C18.0657 19.8 17.8657 20 17.5657 20.1C17.3657 20.2 17.1657 20.3 16.9657 20.3C16.3657 20.4 15.7657 20.4 15.2657 20.1C14.7657 19.8 14.2657 19.4 14.0657 18.9C13.9657 18.7 13.8657 18.5 13.8657 18.3C13.6657 17.4 13.8657 16.6 14.3657 15.9C14.8657 15.1 15.6657 14.5 16.4657 14.3L16.6657 14.2C15.6657 13.8 14.8657 13.1 14.3657 12.2C13.8657 11.3 13.5657 10.3 13.6657 9.2C13.7657 8.2 14.2657 7.2 14.9657 6.5C15.6657 5.8 16.5657 5.2 17.6657 5L18.0657 4.9L18.4657 4.8C18.9657 4.7 19.3657 4.6 19.6657 4.3C19.9657 4 20.0657 3.6 20.1657 3.1C20.1657 3 20.2657 2.9 20.2657 2.7L20.4657 2.8C20.6657 2.9 20.7657 3 20.8657 3.2C21.0657 3.4 21.1657 3.7 21.1657 3.9C21.1657 4.2 21.0657 4.4 20.8657 4.7C20.6657 5 20.4657 5.3 20.1657 5.5L20.2657 5.6C20.3657 5.7 20.4657 5.8 20.5657 5.9C20.8657 6.3 21.0657 6.8 20.9657 7.3C20.9657 7.8 20.7657 8.4 20.3657 8.8C20.2657 9 20.0657 9.1 19.8657 9.3C19.5657 9.5 19.3657 9.7 19.0657 9.8C18.7657 9.9 18.4657 10 18.1657 10C17.8657 10 17.5657 9.9 17.3657 9.8C17.1657 9.6 16.9657 9.4 16.9657 9.1C16.8657 8.8 16.9657 8.6 17.0657 8.3C17.1657 8.1 17.3657 7.9 17.6657 7.8C17.9657 7.7 18.1657 7.7 18.4657 7.8C18.6657 7.9 18.8657 8.1 19.0657 8.3C19.0657 8.2 19.1657 8.1 19.1657 8.1C19.1657 8 19.1657 7.9 19.0657 7.8C18.7657 7.5 18.5657 7.3 18.4657 6.9C18.3657 6.6 18.3657 6.4 18.5657 6.1C18.1657 6.1 17.8657 6.2 17.5657 6.3C17.1657 6.4 16.8657 6.7 16.5657 6.9C16.0657 7.4 15.7657 7.9 15.5657 8.4C15.3657 8.9 15.3657 9.5 15.4657 10.2C15.5657 10.5 15.6657 10.8 15.8657 11.1C16.0657 11.4 16.2657 11.6 16.5657 11.9C16.9657 12.3 17.4657 12.6 18.0657 12.8C18.5657 13 19.0657 13.1 19.6657 13.1C19.6657 12.9 19.7657 12.6 19.8657 12.4C19.9657 12.1 20.1657 11.9 20.4657 11.8C20.6657 11.7 20.8657 11.6 21.1657 11.6L21.7657 11.4L21.5657 12.1C21.4657 12.3 21.4657 12.6 21.4657 12.8C21.4657 13.1 21.4657 13.4 21.6657 13.6C21.7657 13.8 21.9657 14.1 22.2657 14.3L22.8657 14.7C23.6657 15.3 24.3657 15.9 24.9657 16.6C25.6657 17.4 26.0657 18.3 26.1657 19.2C26.2657 20.1 26.0657 21.1 25.5657 22.1C25.3657 22.6 25.0657 22.9 24.7657 23.2C24.4657 23.5 23.9657 23.9 23.3657 24.4L23.4657 24.5C23.5657 24.7 23.7657 24.8 23.8657 25C24.6657 26.1 25.2657 27.2 25.5657 28.4C25.8657 29.6 25.8657 30.9 25.4657 32.2C25.4657 32.3 25.4657 32.4 25.4657 32.5C25.4657 32.6 25.4657 32.7 25.4657 32.7C26.3657 35.4 27.3657 38.1 28.2657 40.8L28.3657 41L33.4657 19.2C34.2657 15.9 34.9657 12.6 35.7657 9.4C35.7657 9.3 35.7657 9.1 35.7657 9C35.7657 8.9 35.7657 8.7 35.6657 8.6C35.5657 8 35.3657 7.4 35.1657 6.8C34.9657 6 34.7657 5.2 34.5657 4.4C34.4657 3.8 34.3657 3.3 34.4657 2.7C34.4657 2.1 34.6657 1.6 34.7657 1C34.8657 0.7 34.9657 0.500001 35.1657 0.300001C35.3657 0.100001 35.6657 0 35.8657 0C36.0657 0 36.3657 0.100001 36.5657 0.200001C36.7657 0.400001 36.9657 0.600001 37.0657 0.800001C37.3657 1.5 37.4657 2.2 37.4657 2.9V3.2C37.5657 4.2 37.5657 5.1 37.4657 6.1C37.3657 7.1 37.2657 8 37.0657 8.9C37.0657 9 37.0657 9.1 37.0657 9.2C37.0657 9.3 37.0657 9.4 37.1657 9.6C37.3657 10.2 37.4657 10.9 37.6657 11.5L37.8657 12.1L38.1657 11C38.3657 10.2 38.6657 9.4 38.8657 8.5C38.8657 8.4 38.8657 8.3 38.8657 8.3C38.8657 8.2 38.8657 8.1 38.8657 8.1L38.7657 7.7C38.4657 6.4 38.0657 5.1 38.0657 3.8C38.0657 3.3 38.0657 2.8 38.0657 2.3C38.1657 1.8 38.2657 1.3 38.4657 0.900002C38.5657 0.600002 38.7657 0.400001 38.9657 0.300001C39.1657 0.200001 39.3657 0.1 39.6657 0.1C39.9657 0.1 40.1657 0.200001 40.3657 0.300001C40.5657 0.400001 40.7657 0.700002 40.8657 0.900002C41.1657 1.7 41.2657 2.5 41.2657 3.3V3.5C41.2657 4.4 41.2657 5.3 41.1657 6.2C41.0657 7.1 40.8657 8 40.6657 8.8C40.6657 8.9 40.6657 9 40.6657 9.1C40.6657 9.2 40.6657 9.3 40.6657 9.4L56.5657 68.7C56.6657 68.9 56.7657 69.2 56.8657 69.4C56.9657 69.6 57.0657 69.7 57.2657 69.9L57.6657 69.5C58.0657 69.1 58.4657 68.8 58.8657 68.4C59.2657 68.1 59.7657 67.9 60.2657 67.7C60.7657 67.6 61.2657 67.5 61.7657 67.5C61.9657 67.5 62.1657 67.5 62.2657 67.6C62.5657 67.7 62.7657 67.8 62.8657 68C63.0657 68.2 63.0657 68.4 63.1657 68.7C63.1657 68.9 63.1657 69 63.0657 69.2C62.7657 70.1 62.2657 70.9 61.5657 71.4C60.8657 71.9 60.0657 72.2 59.0657 72.2C58.6657 72.2 58.3657 72.1 57.9657 72C57.7657 71.9 57.5657 71.9 57.4657 71.9H57.1657C56.5657 72.3 55.8657 72.4 55.3657 72.3C54.7657 72.2 54.1657 71.9 53.6657 71.3C53.2657 70.8 52.9657 70.3 52.6657 69.8C52.3657 69.3 52.1657 68.7 52.0657 68.2C51.1657 64.8 50.1657 61.4 49.2657 57.9L44.0657 38.9L39.1657 21.2L38.1657 17.5L37.7657 18.8L33.9657 32.6C32.7657 37.1 31.4657 41.6 30.2657 46.3C30.2657 46.4 30.2657 46.5 30.2657 46.6C30.2657 46.7 30.2657 46.8 30.3657 46.9C30.4657 47.2 30.5657 47.5 30.6657 47.8C30.7657 48 30.8657 48.3 30.8657 48.5C30.9657 48.9 30.9657 49.2 30.8657 49.6C30.7657 49.9 30.5657 50.3 30.2657 50.5C30.1657 50.6 30.1657 50.7 30.2657 50.9L30.5657 51.7C30.7657 52.3 30.9657 53 31.2657 53.6C31.4657 54.2 31.3657 54.8 31.1657 55.3C30.8657 55.8 30.4657 56.2 29.8657 56.4C29.2657 56.6 28.6657 56.6 28.1657 56.3C27.6657 56.1 27.1657 55.7 26.9657 55.1C26.8657 54.9 26.8657 54.6 26.8657 54.4C26.8657 54.1 26.8657 53.8 26.9657 53.6C27.0657 53.1 27.2657 52.5 27.3657 52C27.4657 51.7 27.5657 51.4 27.6657 51.1L27.5657 50.8C27.2657 50.5 26.9657 50.2 26.8657 49.8C26.7657 49.4 26.7657 49 26.8657 48.6C26.9657 48.3 27.0657 48 27.0657 47.7C27.1657 47.5 27.1657 47.3 27.2657 47.1V46.7L22.7657 35.9Z" fill="white"/>
<path d="M61.8008 20.2266C62.3477 20.2266 62.8099 20.4219 63.1875 20.8125C63.5781 21.1901 63.7734 21.6523 63.7734 22.1992C63.7734 22.7461 63.5781 23.2148 63.1875 23.6055C62.8099 23.9961 62.3477 24.1914 61.8008 24.1914C61.2539 24.1914 60.7852 23.9961 60.3945 23.6055C60.0039 23.2148 59.8086 22.7461 59.8086 22.1992C59.8086 21.6523 59.9974 21.1901 60.375 20.8125C60.7656 20.4219 61.2409 20.2266 61.8008 20.2266ZM63.4219 29.582V43.957C63.4219 45.0768 63.5 45.8255 63.6562 46.2031C63.8255 46.5677 64.0664 46.8411 64.3789 47.0234C64.7044 47.2057 65.2904 47.2969 66.1367 47.2969V48H57.4453V47.2969C58.3177 47.2969 58.9036 47.2122 59.2031 47.043C59.5026 46.8737 59.737 46.5938 59.9062 46.2031C60.0885 45.8125 60.1797 45.0638 60.1797 43.957V37.0625C60.1797 35.1224 60.1211 33.8659 60.0039 33.293C59.9128 32.8763 59.7695 32.5898 59.5742 32.4336C59.3789 32.2643 59.112 32.1797 58.7734 32.1797C58.4089 32.1797 57.9661 32.2773 57.4453 32.4727L57.1719 31.7695L62.5625 29.582H63.4219ZM73.5977 33.3711C75.694 30.8451 77.6927 29.582 79.5938 29.582C80.5703 29.582 81.4102 29.8294 82.1133 30.3242C82.8164 30.806 83.3763 31.6068 83.793 32.7266C84.0794 33.5078 84.2227 34.7057 84.2227 36.3203V43.957C84.2227 45.0898 84.3138 45.8581 84.4961 46.2617C84.6393 46.5872 84.8672 46.8411 85.1797 47.0234C85.5052 47.2057 86.0977 47.2969 86.957 47.2969V48H78.1094V47.2969H78.4805C79.3138 47.2969 79.8932 47.1732 80.2188 46.9258C80.5573 46.6654 80.7917 46.2878 80.9219 45.793C80.974 45.5977 81 44.9857 81 43.957V36.6328C81 35.0052 80.7852 33.8268 80.3555 33.0977C79.9388 32.3555 79.2292 31.9844 78.2266 31.9844C76.6771 31.9844 75.1341 32.8307 73.5977 34.5234V43.957C73.5977 45.168 73.6693 45.9167 73.8125 46.2031C73.9948 46.5807 74.2422 46.8607 74.5547 47.043C74.8802 47.2122 75.5312 47.2969 76.5078 47.2969V48H67.6602V47.2969H68.0508C68.9622 47.2969 69.5742 47.069 69.8867 46.6133C70.2122 46.1445 70.375 45.2591 70.375 43.957V37.3164C70.375 35.168 70.3229 33.8594 70.2188 33.3906C70.1276 32.9219 69.9779 32.6029 69.7695 32.4336C69.5742 32.2643 69.3073 32.1797 68.9688 32.1797C68.6042 32.1797 68.168 32.2773 67.6602 32.4727L67.3672 31.7695L72.7578 29.582H73.5977V33.3711ZM103.93 42.5117L103.715 48H87.9336V47.2969L99.8086 31.4766H93.9492C92.6862 31.4766 91.8594 31.5612 91.4688 31.7305C91.0781 31.8867 90.7591 32.1927 90.5117 32.6484C90.1602 33.2995 89.9583 34.1068 89.9062 35.0703H89.125L89.2422 30.1094H104.242V30.832L92.25 46.6914H98.7734C100.141 46.6914 101.065 46.5807 101.547 46.3594C102.042 46.125 102.439 45.7214 102.738 45.1484C102.947 44.7318 103.122 43.8529 103.266 42.5117H103.93ZM110.707 20.2266C111.254 20.2266 111.716 20.4219 112.094 20.8125C112.484 21.1901 112.68 21.6523 112.68 22.1992C112.68 22.7461 112.484 23.2148 112.094 23.6055C111.716 23.9961 111.254 24.1914 110.707 24.1914C110.16 24.1914 109.691 23.9961 109.301 23.6055C108.91 23.2148 108.715 22.7461 108.715 22.1992C108.715 21.6523 108.904 21.1901 109.281 20.8125C109.672 20.4219 110.147 20.2266 110.707 20.2266ZM112.328 29.582V43.957C112.328 45.0768 112.406 45.8255 112.562 46.2031C112.732 46.5677 112.973 46.8411 113.285 47.0234C113.611 47.2057 114.197 47.2969 115.043 47.2969V48H106.352V47.2969C107.224 47.2969 107.81 47.2122 108.109 47.043C108.409 46.8737 108.643 46.5938 108.812 46.2031C108.995 45.8125 109.086 45.0638 109.086 43.957V37.0625C109.086 35.1224 109.027 33.8659 108.91 33.293C108.819 32.8763 108.676 32.5898 108.48 32.4336C108.285 32.2643 108.018 32.1797 107.68 32.1797C107.315 32.1797 106.872 32.2773 106.352 32.4727L106.078 31.7695L111.469 29.582H112.328ZM124.281 31.5156V43.2734C124.281 44.9401 124.464 45.9948 124.828 46.4375C125.31 47.0104 125.954 47.2969 126.762 47.2969H128.383V48H117.699V47.2969H118.5C119.021 47.2969 119.496 47.1667 119.926 46.9062C120.355 46.6458 120.648 46.2943 120.805 45.8516C120.974 45.4089 121.059 44.5495 121.059 43.2734V31.5156H117.582V30.1094H121.059V28.9375C121.059 27.1536 121.345 25.6432 121.918 24.4062C122.491 23.1693 123.363 22.1732 124.535 21.418C125.72 20.6497 127.048 20.2656 128.52 20.2656C129.887 20.2656 131.143 20.7083 132.289 21.5938C133.044 22.1797 133.422 22.8372 133.422 23.5664C133.422 23.957 133.253 24.3281 132.914 24.6797C132.576 25.0182 132.211 25.1875 131.82 25.1875C131.521 25.1875 131.202 25.0833 130.863 24.875C130.538 24.6536 130.134 24.1914 129.652 23.4883C129.171 22.7721 128.728 22.2904 128.324 22.043C127.921 21.7956 127.471 21.6719 126.977 21.6719C126.378 21.6719 125.87 21.8346 125.453 22.1602C125.036 22.4727 124.737 22.9674 124.555 23.6445C124.372 24.3086 124.281 26.0339 124.281 28.8203V30.1094H128.891V31.5156H124.281ZM140.746 45.4219C138.91 46.8411 137.758 47.6615 137.289 47.8828C136.586 48.2083 135.837 48.3711 135.043 48.3711C133.806 48.3711 132.784 47.9479 131.977 47.1016C131.182 46.2552 130.785 45.1419 130.785 43.7617C130.785 42.8893 130.98 42.1341 131.371 41.4961C131.905 40.6107 132.829 39.7773 134.145 38.9961C135.473 38.2148 137.673 37.2643 140.746 36.1445V35.4414C140.746 33.6576 140.46 32.4336 139.887 31.7695C139.327 31.1055 138.507 30.7734 137.426 30.7734C136.605 30.7734 135.954 30.9948 135.473 31.4375C134.978 31.8802 134.73 32.388 134.73 32.9609L134.77 34.0938C134.77 34.6927 134.613 35.1549 134.301 35.4805C134.001 35.806 133.604 35.9688 133.109 35.9688C132.628 35.9688 132.23 35.7995 131.918 35.4609C131.618 35.1224 131.469 34.6602 131.469 34.0742C131.469 32.9544 132.042 31.9258 133.188 30.9883C134.333 30.0508 135.941 29.582 138.012 29.582C139.6 29.582 140.902 29.849 141.918 30.3828C142.686 30.7865 143.253 31.418 143.617 32.2773C143.852 32.8372 143.969 33.9831 143.969 35.7148V41.7891C143.969 43.4948 144.001 44.543 144.066 44.9336C144.132 45.3112 144.236 45.5651 144.379 45.6953C144.535 45.8255 144.711 45.8906 144.906 45.8906C145.115 45.8906 145.297 45.8451 145.453 45.7539C145.727 45.5846 146.254 45.1094 147.035 44.3281V45.4219C145.577 47.375 144.184 48.3516 142.855 48.3516C142.217 48.3516 141.71 48.1302 141.332 47.6875C140.954 47.2448 140.759 46.4896 140.746 45.4219ZM140.746 44.1523V37.3359C138.78 38.1172 137.51 38.6706 136.938 38.9961C135.909 39.569 135.173 40.168 134.73 40.793C134.288 41.418 134.066 42.1016 134.066 42.8438C134.066 43.7812 134.346 44.5625 134.906 45.1875C135.466 45.7995 136.111 46.1055 136.84 46.1055C137.829 46.1055 139.132 45.4544 140.746 44.1523Z" fill="white"/>
<path d="M63.1094 63.2422L63.9844 59.3125H64.25C64.2135 59.6927 64.1953 60.0078 64.1953 60.2578C64.1953 60.9714 64.4219 61.5521 64.875 62C65.3333 62.4479 65.9297 62.6719 66.6641 62.6719C67.3464 62.6719 67.8646 62.4635 68.2188 62.0469C68.5729 61.625 68.75 61.1406 68.75 60.5938C68.75 60.2396 68.6693 59.9167 68.5078 59.625C68.263 59.1927 67.6094 58.4323 66.5469 57.3438C66.0312 56.8229 65.7005 56.4349 65.5547 56.1797C65.3151 55.7578 65.1953 55.3151 65.1953 54.8516C65.1953 54.112 65.4714 53.4792 66.0234 52.9531C66.5755 52.4271 67.2839 52.1641 68.1484 52.1641C68.4401 52.1641 68.7161 52.1927 68.9766 52.25C69.138 52.2812 69.4323 52.3854 69.8594 52.5625C70.1615 52.6823 70.3281 52.7474 70.3594 52.7578C70.4323 52.7734 70.513 52.7812 70.6016 52.7812C70.7526 52.7812 70.8828 52.7422 70.9922 52.6641C71.1016 52.5859 71.2292 52.4193 71.375 52.1641H71.6719L70.8594 55.6797H70.5938C70.6146 55.3672 70.625 55.1146 70.625 54.9219C70.625 54.2917 70.4167 53.776 70 53.375C69.5833 52.974 69.0339 52.7734 68.3516 52.7734C67.8099 52.7734 67.3698 52.9323 67.0312 53.25C66.6927 53.5677 66.5234 53.9349 66.5234 54.3516C66.5234 54.7161 66.6302 55.0651 66.8438 55.3984C67.0625 55.7266 67.5599 56.2656 68.3359 57.0156C69.1172 57.7604 69.6224 58.3438 69.8516 58.7656C70.0807 59.1823 70.1953 59.6276 70.1953 60.1016C70.1953 60.638 70.0521 61.1589 69.7656 61.6641C69.4844 62.1641 69.0781 62.5521 68.5469 62.8281C68.0156 63.1042 67.4349 63.2422 66.8047 63.2422C66.4922 63.2422 66.2005 63.2135 65.9297 63.1562C65.6589 63.099 65.2266 62.9583 64.6328 62.7344C64.4297 62.6562 64.2604 62.6172 64.125 62.6172C63.8177 62.6172 63.5781 62.8255 63.4062 63.2422H63.1094ZM78.5312 56.1172L77.1719 60.7734C76.9688 61.4661 76.8672 61.9036 76.8672 62.0859C76.8672 62.1797 76.8828 62.25 76.9141 62.2969C76.9505 62.3385 76.9974 62.3594 77.0547 62.3594C77.1432 62.3594 77.2396 62.3203 77.3438 62.2422C77.4531 62.1589 77.724 61.8359 78.1562 61.2734L78.3906 61.4531C77.9792 62.1042 77.5573 62.5833 77.125 62.8906C76.8385 63.0885 76.5625 63.1875 76.2969 63.1875C76.0938 63.1875 75.9349 63.1302 75.8203 63.0156C75.7057 62.901 75.6484 62.7526 75.6484 62.5703C75.6484 62.3932 75.6823 62.1589 75.75 61.8672C75.8333 61.4818 76.0703 60.6432 76.4609 59.3516C75.5755 60.8047 74.8333 61.8073 74.2344 62.3594C73.6406 62.9115 73.0885 63.1875 72.5781 63.1875C72.3385 63.1875 72.1354 63.1042 71.9688 62.9375C71.8021 62.7708 71.7188 62.5599 71.7188 62.3047C71.7188 61.9141 71.8333 61.3151 72.0625 60.5078L72.7422 58.0938C72.9089 57.5156 72.9922 57.1562 72.9922 57.0156C72.9922 56.9531 72.9688 56.901 72.9219 56.8594C72.8802 56.8125 72.8333 56.7891 72.7812 56.7891C72.6719 56.7891 72.5625 56.8281 72.4531 56.9062C72.3438 56.9844 72.0964 57.2734 71.7109 57.7734L71.4688 57.6016C71.8594 56.9974 72.2734 56.5521 72.7109 56.2656C73.0443 56.0417 73.3516 55.9297 73.6328 55.9297C73.8255 55.9297 73.9818 55.9922 74.1016 56.1172C74.2266 56.237 74.2891 56.3932 74.2891 56.5859C74.2891 56.8672 74.1849 57.3698 73.9766 58.0938L73.2422 60.6172C73.0391 61.3047 72.9375 61.7396 72.9375 61.9219C72.9375 62.0208 72.9688 62.1016 73.0312 62.1641C73.099 62.2214 73.1875 62.25 73.2969 62.25C73.4688 62.25 73.6927 62.1641 73.9688 61.9922C74.2448 61.8203 74.612 61.4401 75.0703 60.8516C75.5339 60.2578 75.9141 59.7031 76.2109 59.1875C76.513 58.6667 76.8333 57.8411 77.1719 56.7109L77.3438 56.1172H78.5312ZM80.3438 56.1172H85.3047V56.3125L79.8984 61.9375H82.1875C82.7292 61.9375 83.0729 61.9167 83.2188 61.875C83.3646 61.8333 83.4974 61.7448 83.6172 61.6094C83.7422 61.474 83.8802 61.2292 84.0312 60.875H84.3203L83.6406 63H78.5547V62.7734L83.9609 57.1484H81.7109C81.237 57.1484 80.9505 57.1615 80.8516 57.1875C80.7057 57.2188 80.5599 57.3021 80.4141 57.4375C80.2734 57.5677 80.1276 57.7865 79.9766 58.0938H79.6797L80.3438 56.1172ZM92.7422 55.9297L91.2188 61.2266L91.0469 61.9375C91.0312 62.0052 91.0234 62.0625 91.0234 62.1094C91.0234 62.1927 91.0495 62.2656 91.1016 62.3281C91.1432 62.375 91.1953 62.3984 91.2578 62.3984C91.3255 62.3984 91.4141 62.3568 91.5234 62.2734C91.7266 62.1224 91.9974 61.8099 92.3359 61.3359L92.6016 61.5234C92.2422 62.0651 91.8724 62.4792 91.4922 62.7656C91.112 63.0469 90.7604 63.1875 90.4375 63.1875C90.2135 63.1875 90.0443 63.1302 89.9297 63.0156C89.8203 62.9062 89.7656 62.7448 89.7656 62.5312C89.7656 62.276 89.8229 61.9401 89.9375 61.5234L90.1016 60.9375C89.4193 61.8281 88.7917 62.4505 88.2188 62.8047C87.8073 63.0599 87.4036 63.1875 87.0078 63.1875C86.6276 63.1875 86.2995 63.0312 86.0234 62.7188C85.7474 62.401 85.6094 61.9661 85.6094 61.4141C85.6094 60.5859 85.8568 59.7135 86.3516 58.7969C86.8516 57.875 87.4844 57.138 88.25 56.5859C88.849 56.1484 89.4141 55.9297 89.9453 55.9297C90.263 55.9297 90.526 56.013 90.7344 56.1797C90.9479 56.3464 91.1094 56.6224 91.2188 57.0078L91.5 56.1172L92.7422 55.9297ZM89.9609 56.3359C89.6276 56.3359 89.2734 56.4922 88.8984 56.8047C88.3672 57.2474 87.8932 57.9036 87.4766 58.7734C87.0651 59.6432 86.8594 60.4297 86.8594 61.1328C86.8594 61.487 86.9479 61.7682 87.125 61.9766C87.3021 62.1797 87.5052 62.2812 87.7344 62.2812C88.3021 62.2812 88.9193 61.862 89.5859 61.0234C90.4766 59.9089 90.9219 58.7656 90.9219 57.5938C90.9219 57.151 90.8359 56.8307 90.6641 56.6328C90.4922 56.4349 90.2578 56.3359 89.9609 56.3359ZM96.7656 55.9297L95.7266 59.4844C96.7005 58.0312 97.4453 57.0755 97.9609 56.6172C98.4818 56.1589 98.9818 55.9297 99.4609 55.9297C99.7214 55.9297 99.9349 56.0156 100.102 56.1875C100.273 56.3594 100.359 56.5833 100.359 56.8594C100.359 57.1719 100.284 57.5885 100.133 58.1094L99.1797 61.3984C99.0703 61.7786 99.0156 62.0104 99.0156 62.0938C99.0156 62.1667 99.0365 62.2292 99.0781 62.2812C99.1198 62.3281 99.1641 62.3516 99.2109 62.3516C99.2734 62.3516 99.349 62.3177 99.4375 62.25C99.7135 62.0312 100.016 61.6979 100.344 61.25L100.586 61.3984C100.102 62.0911 99.6432 62.5859 99.2109 62.8828C98.9089 63.0859 98.638 63.1875 98.3984 63.1875C98.2057 63.1875 98.0521 63.1276 97.9375 63.0078C97.8229 62.8932 97.7656 62.737 97.7656 62.5391C97.7656 62.2891 97.8542 61.8594 98.0312 61.25L98.9375 58.1094C99.0521 57.7188 99.1094 57.4141 99.1094 57.1953C99.1094 57.0911 99.0755 57.0078 99.0078 56.9453C98.9401 56.8776 98.8568 56.8438 98.7578 56.8438C98.612 56.8438 98.4375 56.9062 98.2344 57.0312C97.849 57.2656 97.4479 57.6536 97.0312 58.1953C96.6146 58.7318 96.1745 59.4193 95.7109 60.2578C95.4661 60.7005 95.263 61.1849 95.1016 61.7109L94.7109 63H93.5391L94.9609 58.1094C95.1276 57.5208 95.2109 57.1667 95.2109 57.0469C95.2109 56.9323 95.1641 56.8333 95.0703 56.75C94.9818 56.6615 94.8698 56.6172 94.7344 56.6172C94.6719 56.6172 94.5625 56.6276 94.4062 56.6484L94.1094 56.6953L94.0625 56.4141L96.7656 55.9297ZM104.812 52.8281C105.031 52.8281 105.216 52.9036 105.367 53.0547C105.518 53.2057 105.594 53.3906 105.594 53.6094C105.594 53.8229 105.516 54.0078 105.359 54.1641C105.208 54.3151 105.026 54.3906 104.812 54.3906C104.599 54.3906 104.414 54.3151 104.258 54.1641C104.107 54.0078 104.031 53.8229 104.031 53.6094C104.031 53.3906 104.107 53.2057 104.258 53.0547C104.409 52.9036 104.594 52.8281 104.812 52.8281ZM104.914 55.9297L103.367 61.4062C103.263 61.776 103.211 61.9974 103.211 62.0703C103.211 62.1536 103.234 62.2214 103.281 62.2734C103.333 62.3255 103.393 62.3516 103.461 62.3516C103.539 62.3516 103.633 62.3099 103.742 62.2266C104.039 61.9922 104.339 61.6589 104.641 61.2266L104.914 61.4062C104.56 61.9479 104.143 62.4036 103.664 62.7734C103.31 63.0495 102.971 63.1875 102.648 63.1875C102.435 63.1875 102.26 63.125 102.125 63C101.99 62.8698 101.922 62.7083 101.922 62.5156C101.922 62.3229 101.987 62.0026 102.117 61.5547L103.133 58.0547C103.299 57.4818 103.383 57.1224 103.383 56.9766C103.383 56.862 103.341 56.7682 103.258 56.6953C103.18 56.6224 103.07 56.5859 102.93 56.5859C102.815 56.5859 102.578 56.6146 102.219 56.6719V56.3672L104.914 55.9297ZM115.492 55.9297L115.016 58.3281H114.727C114.701 57.6302 114.552 57.1224 114.281 56.8047C114.01 56.487 113.674 56.3281 113.273 56.3281C112.951 56.3281 112.693 56.4167 112.5 56.5938C112.312 56.7708 112.219 56.9844 112.219 57.2344C112.219 57.4062 112.255 57.5703 112.328 57.7266C112.406 57.8828 112.573 58.1016 112.828 58.3828C113.505 59.1224 113.943 59.6797 114.141 60.0547C114.339 60.4297 114.438 60.7839 114.438 61.1172C114.438 61.6589 114.211 62.1406 113.758 62.5625C113.31 62.9792 112.742 63.1875 112.055 63.1875C111.68 63.1875 111.247 63.099 110.758 62.9219C110.586 62.8594 110.453 62.8281 110.359 62.8281C110.125 62.8281 109.948 62.9479 109.828 63.1875H109.539L110.016 60.6562H110.305C110.336 61.4479 110.5 62.0078 110.797 62.3359C111.094 62.6641 111.5 62.8281 112.016 62.8281C112.411 62.8281 112.724 62.7188 112.953 62.5C113.188 62.276 113.305 62.0026 113.305 61.6797C113.305 61.4714 113.263 61.2786 113.18 61.1016C113.034 60.7891 112.727 60.3568 112.258 59.8047C111.794 59.2526 111.495 58.8385 111.359 58.5625C111.229 58.2865 111.164 58.0104 111.164 57.7344C111.164 57.2292 111.346 56.8021 111.711 56.4531C112.081 56.1042 112.555 55.9297 113.133 55.9297C113.299 55.9297 113.451 55.9427 113.586 55.9688C113.659 55.9844 113.828 56.0443 114.094 56.1484C114.365 56.2474 114.544 56.2969 114.633 56.2969C114.857 56.2969 115.044 56.1745 115.195 55.9297H115.492ZM120.617 51.8906L118.422 59.4766C119.37 58.0495 120.109 57.1016 120.641 56.6328C121.172 56.1641 121.68 55.9297 122.164 55.9297C122.414 55.9297 122.622 56.0156 122.789 56.1875C122.956 56.3594 123.039 56.5885 123.039 56.875C123.039 57.2188 122.966 57.6354 122.82 58.125L121.867 61.3984C121.747 61.7943 121.688 62.013 121.688 62.0547C121.688 62.1276 121.708 62.1875 121.75 62.2344C121.797 62.2812 121.849 62.3047 121.906 62.3047C121.974 62.3047 122.052 62.2708 122.141 62.2031C122.438 61.974 122.732 61.6562 123.023 61.25L123.266 61.3984C123.089 61.6745 122.841 61.9792 122.523 62.3125C122.211 62.6406 121.94 62.8698 121.711 63C121.487 63.125 121.286 63.1875 121.109 63.1875C120.917 63.1875 120.758 63.125 120.633 63C120.513 62.8802 120.453 62.724 120.453 62.5312C120.453 62.3021 120.544 61.875 120.727 61.25L121.625 58.125C121.74 57.7344 121.797 57.4271 121.797 57.2031C121.797 57.099 121.763 57.0156 121.695 56.9531C121.633 56.8906 121.549 56.8594 121.445 56.8594C121.294 56.8594 121.122 56.9167 120.93 57.0312C120.576 57.25 120.167 57.6562 119.703 58.25C119.578 58.4115 119.161 59.0625 118.453 60.2031C118.234 60.5677 118.055 60.9661 117.914 61.3984L117.414 63H116.242L118.812 54.0625L119.086 53.0938C119.086 52.9583 119.029 52.8385 118.914 52.7344C118.805 52.6302 118.669 52.5781 118.508 52.5781C118.414 52.5781 118.271 52.5938 118.078 52.625L117.914 52.6484V52.3438L120.617 51.8906ZM131.32 58.375C131.32 59.1562 131.112 59.9297 130.695 60.6953C130.284 61.4609 129.708 62.0677 128.969 62.5156C128.229 62.9635 127.51 63.1875 126.812 63.1875C126.099 63.1875 125.516 62.9609 125.062 62.5078C124.615 62.0495 124.391 61.4583 124.391 60.7344C124.391 59.9688 124.609 59.2005 125.047 58.4297C125.49 57.6589 126.078 57.0495 126.812 56.6016C127.552 56.1536 128.266 55.9297 128.953 55.9297C129.641 55.9297 130.206 56.1562 130.648 56.6094C131.096 57.0625 131.32 57.651 131.32 58.375ZM130.023 57.8359C130.023 57.3516 129.904 56.9818 129.664 56.7266C129.43 56.4661 129.125 56.3359 128.75 56.3359C127.984 56.3359 127.279 56.8854 126.633 57.9844C125.992 59.0781 125.672 60.1667 125.672 61.25C125.672 61.7448 125.797 62.1276 126.047 62.3984C126.297 62.6641 126.612 62.7969 126.992 62.7969C127.727 62.7969 128.414 62.2526 129.055 61.1641C129.701 60.0703 130.023 58.9609 130.023 57.8359ZM135.461 55.9297L134.922 57.7266C135.49 57.0599 135.995 56.5938 136.438 56.3281C136.885 56.0625 137.341 55.9297 137.805 55.9297C138.268 55.9297 138.664 56.1146 138.992 56.4844C139.32 56.849 139.484 57.3255 139.484 57.9141C139.484 59.0599 139.018 60.2266 138.086 61.4141C137.154 62.5964 136.068 63.1875 134.828 63.1875C134.568 63.1875 134.336 63.1589 134.133 63.1016C133.935 63.0443 133.711 62.9427 133.461 62.7969L132.891 64.8125C132.776 65.2083 132.719 65.4661 132.719 65.5859C132.719 65.7005 132.747 65.7969 132.805 65.875C132.867 65.9583 132.966 66.0208 133.102 66.0625C133.237 66.1094 133.505 66.1328 133.906 66.1328L133.836 66.4219H130.156L130.234 66.1328C130.719 66.112 131.047 66.0286 131.219 65.8828C131.385 65.737 131.562 65.3333 131.75 64.6719L133.727 57.8281C133.846 57.3958 133.906 57.1276 133.906 57.0234C133.906 56.8828 133.865 56.7734 133.781 56.6953C133.703 56.6172 133.581 56.5781 133.414 56.5781C133.263 56.5781 133.052 56.5964 132.781 56.6328V56.3281L135.461 55.9297ZM133.641 62.1797C133.964 62.5651 134.398 62.7578 134.945 62.7578C135.216 62.7578 135.492 62.6823 135.773 62.5312C136.055 62.3802 136.328 62.1562 136.594 61.8594C136.865 61.5625 137.107 61.2214 137.32 60.8359C137.534 60.4453 137.724 59.987 137.891 59.4609C138.062 58.9349 138.148 58.4141 138.148 57.8984C138.148 57.4818 138.052 57.1641 137.859 56.9453C137.672 56.7214 137.451 56.6094 137.195 56.6094C136.633 56.6094 136.076 56.9323 135.523 57.5781C134.977 58.224 134.576 58.9792 134.32 59.8438L133.641 62.1797Z" fill="white"/>
</svg>
