<svg width="62" height="53" viewBox="0 0 62 53" fill="none" xmlns="http://www.w3.org/2000/svg">
<path d="M11.1672 52.8942V49.7273C11.1672 48.5131 10.4298 47.7215 9.16571 47.7215C8.5338 47.7215 7.84912 47.9326 7.37508 48.6189C7.00659 48.0382 6.48 47.7215 5.69 47.7215C5.16318 47.7215 4.63683 47.8797 4.21532 48.4604V47.8271H3.10938V52.8942H4.21532V50.0966C4.21532 49.1995 4.68937 48.7771 5.42683 48.7771C6.16381 48.7771 6.53278 49.2522 6.53278 50.0966V52.8942H7.63873V50.0966C7.63873 49.1995 8.16507 48.7771 8.84976 48.7771C9.58721 48.7771 9.9557 49.2522 9.9557 50.0966V52.8942H11.1672ZM27.5456 47.8271H25.7552V46.2964H24.6492V47.8271H23.6486V48.8297H24.649V51.1524C24.649 52.3138 25.123 52.9998 26.3871 52.9998C26.8611 52.9998 27.3875 52.8416 27.7564 52.6305L27.4403 51.6802C27.1243 51.8913 26.7558 51.9442 26.4924 51.9442C25.9658 51.9442 25.7552 51.6276 25.7552 51.0995V48.8297H27.5456V47.8271ZM36.92 47.7213C36.2881 47.7213 35.8668 48.0382 35.6034 48.4604V47.8271H34.4975V52.8942H35.6034V50.044C35.6034 49.1995 35.9719 48.7244 36.6566 48.7244C36.8672 48.7244 37.1306 48.7773 37.3413 48.83L37.6572 47.7744C37.4466 47.7215 37.1306 47.7215 36.92 47.7215V47.7213ZM22.7533 48.2493C22.2265 47.8797 21.4892 47.7215 20.6992 47.7215C19.4354 47.7215 18.5929 48.3549 18.5929 49.3578C18.5929 50.2024 19.2248 50.6773 20.3308 50.8358L20.8573 50.8887C21.4367 50.994 21.7527 51.1524 21.7527 51.4164C21.7527 51.7858 21.3314 52.0498 20.5939 52.0498C19.8567 52.0498 19.2773 51.7858 18.9086 51.522L18.382 52.3664C18.9614 52.7887 19.7514 52.9998 20.5411 52.9998C22.0158 52.9998 22.8586 52.3138 22.8586 51.3635C22.8586 50.4662 22.1739 49.9911 21.1205 49.8329L20.5939 49.78C20.1199 49.7271 19.7514 49.6218 19.7514 49.3051C19.7514 48.9355 20.1199 48.7244 20.6992 48.7244C21.3314 48.7244 21.9633 48.9882 22.2792 49.1466L22.7533 48.2493ZM52.1401 47.7215C51.508 47.7215 51.0867 48.0382 50.8233 48.4604V47.8271H49.7173V52.8942H50.8233V50.044C50.8233 49.1995 51.192 48.7244 51.8765 48.7244C52.0873 48.7244 52.3507 48.7773 52.5614 48.83L52.8773 47.7744C52.6667 47.7215 52.3507 47.7215 52.1401 47.7215ZM38.0259 50.3607C38.0259 51.8913 39.0791 52.9998 40.7119 52.9998C41.4491 52.9998 41.9757 52.8416 42.5023 52.4193L41.9757 51.522C41.5544 51.8387 41.1332 51.9969 40.6591 51.9969C39.7638 51.9969 39.1319 51.3635 39.1319 50.3607C39.1319 49.4107 39.7638 48.7771 40.6591 48.7244C41.1332 48.7244 41.5544 48.8826 41.9757 49.1995L42.5023 48.3022C41.9757 47.8797 41.4491 47.7215 40.7119 47.7215C39.0791 47.7215 38.0259 48.83 38.0259 50.3607ZM48.2429 50.3607V47.8271H47.1369V48.4604C46.7682 47.9855 46.2416 47.7215 45.557 47.7215C44.1351 47.7215 43.0291 48.83 43.0291 50.3607C43.0291 51.8913 44.1351 52.9998 45.557 52.9998C46.2942 52.9998 46.821 52.736 47.1369 52.2609V52.8942H48.2429V50.3607ZM44.1876 50.3607C44.1876 49.4633 44.767 48.7244 45.7148 48.7244C46.6101 48.7244 47.2423 49.4107 47.2423 50.3607C47.2423 51.258 46.6101 51.9969 45.7148 51.9969C44.767 51.944 44.1876 51.258 44.1876 50.3607ZM30.969 47.7215C29.4943 47.7215 28.4409 48.7771 28.4409 50.3607C28.4409 51.9442 29.4941 52.9998 31.0215 52.9998C31.7587 52.9998 32.4962 52.7887 33.0756 52.3138L32.5487 51.522C32.1275 51.8387 31.6009 52.0498 31.0743 52.0498C30.3896 52.0498 29.7049 51.7331 29.5468 50.8355H33.2862V50.4135C33.339 48.7771 32.3911 47.7215 30.969 47.7215ZM30.969 48.6715C31.6534 48.6715 32.1277 49.094 32.2328 49.8858H29.5996C29.7049 49.1995 30.179 48.6715 30.969 48.6715ZM58.4071 50.3607V45.8213H57.3011V48.4604C56.9324 47.9855 56.4058 47.7215 55.7211 47.7215C54.2992 47.7215 53.1933 48.83 53.1933 50.3607C53.1933 51.8913 54.2992 52.9998 55.7211 52.9998C56.4586 52.9998 56.9852 52.736 57.3011 52.2609V52.8942H58.4071V50.3607ZM54.352 50.3607C54.352 49.4633 54.9311 48.7244 55.8792 48.7244C56.7745 48.7244 57.4064 49.4107 57.4064 50.3607C57.4064 51.258 56.7745 51.9969 55.8792 51.9969C54.9311 51.944 54.352 51.258 54.352 50.3607ZM17.3814 50.3607V47.8271H16.2754V48.4604C15.9067 47.9855 15.3801 47.7215 14.6955 47.7215C13.2736 47.7215 12.1676 48.83 12.1676 50.3607C12.1676 51.8913 13.2736 52.9998 14.6955 52.9998C15.4329 52.9998 15.9595 52.736 16.2754 52.2609V52.8942H17.3814V50.3607ZM13.2736 50.3607C13.2736 49.4633 13.8529 48.7244 14.8008 48.7244C15.6961 48.7244 16.3282 49.4107 16.3282 50.3607C16.3282 51.258 15.6961 51.9969 14.8008 51.9969C13.8529 51.944 13.2736 51.258 13.2736 50.3607Z" fill="white"/>
<path d="M22.3828 4.06445H38.972V33.9428H22.3828V4.06445Z" fill="#FF5F00"/>
<path d="M23.4358 19.0039C23.4358 12.9333 26.2796 7.54876 30.6506 4.06462C27.4383 1.53082 23.3833 0 18.9595 0C8.47886 0 0 8.49885 0 19.0039C0 29.5087 8.47886 38.0078 18.9592 38.0078C23.383 38.0078 27.4381 36.477 30.6506 33.943C26.2796 30.5117 23.4358 25.0745 23.4358 19.0039Z" fill="#EB001B"/>
<path d="M61.3538 19.0039C61.3538 29.5087 52.8749 38.0078 42.3945 38.0078C37.9707 38.0078 33.9157 36.477 30.7031 33.943C35.1269 30.4591 37.9182 25.0745 37.9182 19.0039C37.9182 12.9333 35.0741 7.54876 30.7031 4.06462C33.9154 1.53082 37.9707 0 42.3945 0C52.8749 0 61.3538 8.55175 61.3538 19.0039Z" fill="#F79E1B"/>
</svg>
