<svg width="32" height="38" viewBox="0 0 32 38" fill="none" xmlns="http://www.w3.org/2000/svg">
<path d="M27.0076 3.25677C25.2745 1.29169 22.1415 0.449219 18.1335 0.449219H6.50125C6.1047 0.449233 5.72116 0.589966 5.41958 0.846115C5.11801 1.10226 4.91819 1.45703 4.85604 1.84662L0.0125689 32.4037C-0.0837035 33.0063 0.385344 33.5519 0.999298 33.5519H8.18067L9.98422 22.1724L9.92825 22.5288C10.0567 21.7244 10.7483 21.1311 11.5672 21.1311H14.9798C21.6838 21.1311 26.9331 18.4224 28.4665 10.5868C28.512 10.355 28.5515 10.1294 28.5856 9.90908C28.392 9.80713 28.392 9.80713 28.5856 9.90908C29.0422 7.01295 28.5824 5.04156 27.0076 3.25677Z" fill="#27346A"/>
<path d="M12.7321 8.8658C12.9284 8.7728 13.1431 8.72461 13.3606 8.72475H22.4801C23.56 8.72475 24.5672 8.79465 25.4877 8.94201C25.7452 8.98287 26.0015 9.03164 26.256 9.08826C26.6167 9.16745 26.9733 9.26437 27.3244 9.37866C27.7769 9.52899 28.1984 9.70407 28.5857 9.90909C29.0422 7.01183 28.5824 5.04156 27.0076 3.25677C25.2735 1.29169 22.1415 0.449219 18.1335 0.449219H6.50026C5.68119 0.449219 4.9844 1.04238 4.85604 1.84662L0.0125696 32.4026C-0.0837028 33.0062 0.385345 33.5511 0.998304 33.5511H8.18067L11.9225 9.94719C11.9593 9.71519 12.0522 9.49555 12.1932 9.30717C12.3342 9.1188 12.5192 8.96733 12.7321 8.8658Z" fill="#4F60A5"/>
<path d="M28.4647 10.5868C26.9313 18.4214 21.6821 21.1312 14.978 21.1312H11.5644C10.7455 21.1312 10.0538 21.7245 9.92653 22.5289L7.68279 36.6779C7.59895 37.2053 8.00892 37.6831 8.54526 37.6831H14.599C14.9457 37.683 15.2811 37.5599 15.5448 37.3358C15.8084 37.1117 15.983 36.8014 16.0372 36.4607L16.0962 36.1538L17.2371 28.9607L17.3106 28.5631C17.3648 28.2224 17.5394 27.9122 17.803 27.6881C18.0667 27.464 18.402 27.3408 18.7488 27.3407H19.6548C25.519 27.3407 30.1109 24.9708 31.4527 18.1167C32.0128 15.2523 31.723 12.8609 30.2414 11.1811C29.792 10.6723 29.2339 10.2522 28.5837 9.90918C28.5485 10.1307 28.5103 10.3551 28.4647 10.5868Z" fill="#2790C3"/>
<path d="M26.9812 9.27261C26.7421 9.20316 26.5008 9.14167 26.2576 9.08825C26.0029 9.03256 25.7467 8.98412 25.4892 8.943C24.5678 8.79464 23.5613 8.72461 22.4804 8.72461H13.362C13.1444 8.72412 12.9295 8.77273 12.7335 8.86678C12.5204 8.968 12.3352 9.11937 12.1941 9.3078C12.053 9.49623 11.9603 9.71603 11.9238 9.94817L9.98566 22.1724L9.92969 22.5287C10.0572 21.7244 10.7487 21.1311 11.5678 21.1311H14.9814C21.6854 21.1311 26.9346 18.4224 28.468 10.5867C28.5136 10.355 28.5519 10.1304 28.5871 9.90908C28.1988 9.70517 27.7785 9.52898 27.3259 9.37964C27.2117 9.34197 27.0968 9.30629 26.9813 9.27261" fill="#2E3979"/>
</svg>
