<svg width="62" height="20" viewBox="0 0 62 20" fill="none" xmlns="http://www.w3.org/2000/svg">
<path d="M57.4043 19.7113L56.8256 16.8119H50.3311L49.2977 19.6907L44.0923 19.701C47.4378 11.6778 49.9229 5.73711 51.5427 1.87371C51.9663 0.863403 52.7181 0.347939 53.8263 0.355671C54.6737 0.363403 56.0557 0.363402 57.9752 0.358247L62 19.7036L57.4043 19.7113ZM51.7932 12.8402H55.9782L54.4153 5.57216L51.7932 12.8402ZM18.2383 0.353093L23.4722 0.358247L15.3812 19.7139L10.0828 19.7088C8.7504 14.5962 7.43461 9.47932 6.13542 4.35825C5.87708 3.33763 5.36558 2.62371 4.38133 2.28608C2.92778 1.80003 1.46718 1.3352 0 0.891752L0 0.358247H8.36225C9.80892 0.358247 10.6537 1.0567 10.9249 2.48969C11.1987 3.92526 11.8859 7.58247 12.9916 13.4536L18.2383 0.353093ZM30.6642 0.358247L26.5282 19.7113L21.545 19.7036L25.6783 0.353093L30.6642 0.358247ZM40.765 0C42.2556 0 44.1337 0.463917 45.2135 0.891752L44.3403 4.90206C43.3638 4.51031 41.757 3.98196 40.4059 4C38.4426 4.03351 37.2284 4.85567 37.2284 5.64433C37.2284 6.92784 39.3364 7.57474 41.5064 8.9768C43.9812 10.5747 44.3093 12.0103 44.2783 13.5722C44.2447 16.8067 41.5064 20 35.7301 20C33.0951 19.9613 32.1444 19.7423 29.9951 18.9794L30.9044 14.7938C33.0925 15.7062 34.0199 15.9974 35.8902 15.9974C37.603 15.9974 39.0729 15.3067 39.0858 14.1031C39.0962 13.2474 38.5692 12.8222 36.6472 11.7655C34.7252 10.7062 32.0282 9.24227 32.0643 6.29639C32.1082 2.52835 35.6862 0 40.765 0Z" fill="white"/>
</svg>
