<?xml version="1.0" standalone="no"?>
<!DOCTYPE svg PUBLIC "-//W3C//DTD SVG 20010904//EN"
 "http://www.w3.org/TR/2001/REC-SVG-20010904/DTD/svg10.dtd">
<svg version="1.0" xmlns="http://www.w3.org/2000/svg"
 width="159.000000pt" height="159.000000pt" viewBox="0 0 159.000000 159.000000"
 preserveAspectRatio="xMidYMid meet">
<metadata>
Created by potrace 1.14, written by Peter Selinger 2001-2017
</metadata>
<g transform="translate(0.000000,159.000000) scale(0.100000,-0.100000)"
fill="#000000" stroke="none">
<path d="M464 1129 c-3 -5 -2 -28 1 -52 7 -47 -31 -211 -46 -201 -5 3 -6 -2
-3 -11 4 -8 3 -36 -1 -61 -11 -76 -28 -37 -27 64 0 84 -1 90 -29 123 -24 28
-28 40 -24 72 5 36 4 38 -18 32 -33 -10 -59 -45 -55 -75 3 -17 -1 -27 -9 -27
-6 0 -10 5 -6 10 7 11 -37 -1 -55 -16 -7 -6 -11 -16 -8 -23 3 -9 -1 -11 -12
-7 -9 3 -14 3 -10 -2 4 -4 -2 -23 -12 -43 -14 -26 -17 -40 -9 -54 6 -10 9 -31
7 -46 -1 -15 1 -58 6 -95 6 -57 10 -66 22 -56 19 15 18 3 -3 -31 -14 -24 -15
-35 -5 -68 9 -28 9 -48 2 -67 -13 -35 5 -24 26 16 8 17 23 38 34 49 11 11 16
26 13 39 -9 36 -23 34 -39 -5 -12 -29 -18 -34 -25 -23 -13 20 -12 22 22 57 34
35 49 40 49 17 0 -8 5 -15 10 -15 6 0 10 4 10 9 0 15 53 91 63 91 5 0 7 9 4
20 -3 12 0 20 8 20 18 0 45 -72 46 -123 1 -23 3 -34 6 -24 4 17 6 17 16 2 10
-13 12 -7 9 29 -4 48 31 162 67 219 l19 30 17 -59 c9 -33 30 -108 45 -169 59
-231 66 -247 113 -239 35 5 45 13 49 35 3 23 5 23 163 25 219 3 226 4 221 60
-3 31 -16 62 -16 37 0 -5 -6 -10 -12 -10 -7 -1 -82 -4 -165 -7 -130 -5 -153
-4 -153 8 0 10 -7 13 -21 11 -28 -6 -32 -10 -37 -43 -2 -14 -8 -32 -14 -39 -7
-9 -7 -13 1 -13 7 0 9 -5 6 -10 -12 -19 -26 -10 -41 25 -8 19 -15 42 -17 52
-1 10 -5 23 -8 28 -11 18 -59 209 -64 255 -3 25 -6 51 -7 58 -1 6 -6 12 -11
12 -5 0 -7 7 -3 15 3 8 0 15 -5 15 -6 0 -9 9 -6 20 3 10 0 21 -6 23 -6 2 -12
32 -13 68 -1 35 -2 67 -3 70 -2 10 -51 8 -57 -2z m13 -161 c-3 -8 -6 -5 -6 6
-1 11 2 17 5 13 3 -3 4 -12 1 -19z m-196 -35 c13 -16 12 -17 -3 -4 -17 13 -22
21 -14 21 2 0 10 -8 17 -17z m-43 -19 c11 4 24 0 32 -9 10 -12 10 -15 -4 -15
-10 0 -14 5 -11 10 4 7 -2 9 -17 5 -17 -4 -29 -1 -39 12 -13 16 -12 17 3 5 9
-8 26 -11 36 -8z m300 -19 c-3 -3 -9 2 -12 12 -6 14 -5 15 5 6 7 -7 10 -15 7
-18z m-217 -20 c5 4 9 1 9 -5 0 -6 5 -8 12 -4 7 4 8 3 4 -4 -4 -7 -17 -12 -30
-12 -18 0 -22 5 -20 23 3 31 6 34 11 14 2 -9 9 -15 14 -12z m236 -67 c-3 -8
-6 -5 -6 6 -1 11 2 17 5 13 3 -3 4 -12 1 -19z m20 -59 c6 -22 7 -37 3 -32 -12
13 -30 73 -22 73 5 0 13 -18 19 -41z m-347 -169 c0 -5 -5 -10 -11 -10 -5 0 -7
5 -4 10 3 6 8 10 11 10 2 0 4 -4 4 -10z"/>
<path d="M674 896 c-11 -28 1 -51 27 -54 29 -3 44 18 34 49 -8 23 -53 26 -61
5z"/>
<path d="M1126 884 c-9 -24 3 -35 25 -23 16 8 18 13 8 25 -15 18 -25 18 -33
-2z"/>
<path d="M1257 872 c-10 -10 -17 -30 -17 -45 0 -19 -4 -25 -15 -21 -8 4 -15 1
-15 -5 0 -6 7 -11 15 -11 24 0 21 -125 -2 -139 -14 -8 -5 -10 37 -10 43 0 50
2 33 9 -21 8 -23 16 -23 74 0 59 2 65 23 69 l22 4 -22 8 c-17 5 -23 15 -23 36
0 35 27 50 45 26 15 -21 35 -22 35 -3 0 30 -68 36 -93 8z"/>
<path d="M669 810 c-22 -18 -22 -21 -8 -33 24 -18 32 -89 13 -115 -15 -21 -14
-22 25 -22 23 0 41 5 41 10 0 6 -5 10 -11 10 -6 0 -9 23 -8 58 2 59 12 70 47
48 20 -12 16 -103 -5 -115 -14 -8 -9 -10 26 -11 35 0 42 3 33 12 -7 7 -12 34
-12 60 0 42 3 50 25 60 14 6 28 8 31 5 10 -10 11 -100 2 -120 -8 -16 -2 -17
103 -15 111 3 112 3 114 27 2 20 0 21 -9 8 -11 -15 -33 -20 -69 -18 -17 1 -17
2 0 29 10 15 20 29 23 32 18 15 62 81 58 86 -3 3 -38 7 -77 10 -75 6 -79 3
-62 -39 6 -17 8 -17 20 -3 15 18 61 22 61 6 0 -5 -4 -10 -10 -10 -5 0 -10 -5
-10 -11 0 -16 -70 -104 -83 -104 -8 0 -12 26 -13 78 0 56 -5 81 -14 87 -21 13
-112 9 -142 -7 -25 -12 -28 -12 -28 2 0 21 -33 19 -61 -5z"/>
<path d="M1115 800 c-18 -7 -19 -8 -2 -15 13 -6 17 -19 17 -66 0 -45 -4 -60
-17 -68 -14 -8 -9 -10 27 -11 34 0 41 3 32 12 -7 7 -12 42 -12 85 0 76 -3 81
-45 63z"/>
<path d="M1346 794 c-20 -20 -21 -44 -1 -44 8 0 15 6 15 13 0 19 20 36 36 30
27 -10 15 -41 -23 -60 -30 -16 -39 -26 -41 -51 -4 -39 17 -51 59 -35 16 7 29
7 29 2 0 -14 26 -10 40 6 9 10 9 15 1 15 -7 0 -11 21 -11 54 0 63 -16 86 -60
86 -16 0 -36 -7 -44 -16z m70 -93 c1 -23 -29 -46 -46 -36 -16 10 -11 43 8 54
24 14 37 8 38 -18z"/>
<path d="M1233 603 c-7 -2 -13 -11 -13 -19 0 -9 -11 -14 -30 -14 -23 0 -30 -5
-31 -20 -1 -11 -2 -25 -3 -32 -1 -17 64 -15 75 3 6 10 9 10 9 2 0 -7 7 -13 16
-13 8 0 13 4 9 9 -3 5 0 13 6 17 8 4 9 3 5 -4 -3 -6 2 -15 11 -21 24 -12 53 9
53 38 0 19 -4 21 -34 16 -20 -4 -36 -2 -41 4 -10 17 -25 3 -19 -17 5 -13 4
-14 -4 -3 -13 18 -4 49 17 54 12 4 12 5 1 5 -8 0 -21 -2 -27 -5z m83 -80 c-11
-11 -17 4 -9 23 7 18 8 18 11 1 2 -10 1 -21 -2 -24z"/>
<path d="M1355 560 c2 -3 0 -23 -5 -43 -10 -45 4 -40 20 8 12 37 36 50 27 15
-3 -11 -1 -18 4 -14 5 3 9 14 9 24 0 14 -7 18 -30 18 -16 -1 -27 -4 -25 -8z"/>
</g>
</svg>
